Gidole-Regular-Alternates.sfdir
StartChar: parenright
Encoding: 333 41 77
GlifName: parenright
Width: 612
Flags: W
VStem: 373 140<76.4363 1005.56>
LayerCount: 4
Back
Fore
SplineSet
156 1521 m 5
 80 1433 l 5
 197 1325 281 1185 324 1026 c 4
 366 871 373 706 373 541 c 4
 373 376 366 211 324 56 c 4
 281 -103 197 -243 80 -351 c 5
 156 -439 l 5
 310 -314 411 -145 462 36 c 4
 507 202 513 374 513 541 c 4
 513 708 507 880 462 1046 c 4
 411 1227 310 1396 156 1521 c 5
EndSplineSet
Layer: 2
Layer: 3
EndChar
StartChar: asterisk
Encoding: 351 42 95
GlifName: asterisk
Width: 1003
VWidth: 0
Flags: W
VStem: 432 141<1105 1416>
LayerCount: 4
Back
Fore
SplineSet
861 1204 m 5
 903 1075 l 5
 609 984 l 5
 796 735 l 5
 678 650 l 5
 502 901 l 5
 326 650 l 5
 208 735 l 5
 395 984 l 5
 100 1075 l 5
 143 1204 l 5
 432 1104 l 5
 427 1416 l 5
 577 1416 l 5
 573 1105 l 5
 861 1204 l 5
EndSplineSet
Layer: 2
Layer: 3
EndChar
StartChar: plus
Encoding: 339 43 83
GlifName: plus
Width: 1060
Flags: W
HStem: 474 134<120 455 605 940>
VStem: 455 150<131 474 608 951>
LayerCount: 4
Back
Fore
SplineSet
120 474 m 5
 120 608 l 5
 455 608 l 5
 455 951 l 5
 605 951 l 5
 605 608 l 5
 940 608 l 5
 940 474 l 5
 605 474 l 5
 605 131 l 5
 455 131 l 5
 455 474 l 5
 120 474 l 5
EndSplineSet
Layer: 2
Layer: 3
EndChar
StartChar: hyphen
Encoding: 336 45 80
GlifName: hyphen
Width: 700
Flags: W
HStem: 474 134<100 600>
VStem: 100 500<474 608>
LayerCount: 4
Back
Fore
SplineSet
100 474 m 5
 100 608 l 5
 600 608 l 5
 600 474 l 5
 100 474 l 5
EndSplineSet
Layer: 2
Layer: 3
EndChar
StartChar: period
Encoding: 257 46 1
GlifName: period
Width: 460
VWidth: 0
Flags: W
HStem: -16 220<139.109 320.891>
VStem: 120 220<3.10925 184.891>
LayerCount: 4
Back
Fore
SplineSet
230 204 m 4
 295 204 340 159 340 94 c 4
 340 29 295 -16 230 -16 c 4
 165 -16 120 29 120 94 c 4
 120 159 165 204 230 204 c 4
EndSplineSet
Layer: 2
Layer: 3
EndChar
StartChar: slash
Encoding: 328 47 72
GlifName: slash
Width: 890
VWidth: 0
Flags: W
LayerCount: 4
Back
Fore
SplineSet
657 1416 m 5
 804 1416 l 5
 233 -90 l 5
 86 -90 l 5
 657 1416 l 5
EndSplineSet
Layer: 2
Layer: 3
EndChar
StartChar: zero
Encoding: 258 48 2
GlifName: zero
Width: 1068
VWidth: 0
Flags: W
HStem: -19 140<380.406 687.594> 1295 140<380.406 687.594>
VStem: 116 156<242.808 1173.19> 796 156<242.808 1173.19>
LayerCount: 4
Back
Fore
SplineSet
534 1435 m 4
 660 1435 770 1388 837 1314 c 4
 952 1186 952 1031 952 708 c 4
 952 385 952 230 837 102 c 4
 770 28 660 -19 534 -19 c 4
 408 -19 298 28 231 102 c 4
 116 230 116 385 116 708 c 4
 116 1031 116 1186 231 1314 c 4
 298 1388 408 1435 534 1435 c 4
534 1295 m 4
 451 1295 389 1267 349 1222 c 4
 272 1137 272 987 272 708 c 4
 272 429 272 279 349 194 c 4
 389 149 451 121 534 121 c 4
 617 121 679 149 719 194 c 4
 796 279 796 429 796 708 c 4
 796 987 796 1137 719 1222 c 4
 679 1267 617 1295 534 1295 c 4
EndSplineSet
Layer: 2
Layer: 3
EndChar
StartChar: one
Encoding: 259 49 3
GlifName: one
Width: 750
Flags: W
HStem: 0 21G<398 554>
VStem: 398 156<0 1235>
LayerCount: 4
Back
Fore
SplineSet
554 0 m 5
 398 0 l 5
 398 1235 l 5
 201 1133 l 5
 136 1261 l 5
 436 1416 l 5
 554 1416 l 5
 554 0 l 5
EndSplineSet
Layer: 2
Layer: 3
EndChar
StartChar: two
Encoding: 260 50 4
GlifName: two
Width: 1068
Flags: W
HStem: 0 140<334 942> 1295 140<330.321 641.445>
VStem: 744 156<883.397 1189.2>
LayerCount: 4
Back
Fore
SplineSet
492 1435 m 4
 733 1435 900 1265 900 1040 c 4
 900 928 858 836 774 724 c 6
 334 140 l 5
 942 140 l 5
 942 0 l 5
 126 0 l 5
 126 108 l 5
 643 800 l 6
 706 884 744 947 744 1040 c 4
 744 1188 646 1295 492 1295 c 4
 381 1295 302 1242 237 1180 c 5
 135 1286 l 5
 217 1365 337 1435 492 1435 c 4
EndSplineSet
Layer: 2
Layer: 3
EndChar
StartChar: three
Encoding: 261 51 5
GlifName: three
Width: 1068
Flags: W
HStem: -19 140<357.731 688.639> 661 140<373 677.57> 1295 140<360.568 678.91>
VStem: 778 156<903.799 1197.3> 801 156<236.504 542.835>
LayerCount: 4
Back
Fore
SplineSet
144 145 m 1xe8
 250 247 l 1
 315 177 412 121 534 121 c 0
 696 121 801 231 801 390 c 0xe8
 801 480 759 560 705 603 c 0
 633 661 555 661 445 661 c 2
 373 661 l 1
 373 801 l 1
 448 801 l 2
 554 801 624 801 690 854 c 0
 739 893 778 966 778 1049 c 0
 778 1193 683 1295 534 1295 c 0
 415 1295 318 1236 253 1167 c 1
 150 1273 l 1
 233 1356 367 1435 534 1435 c 0
 767 1435 934 1275 934 1047 c 0xf0
 934 914 863 793 762 734 c 1
 877 669 957 540 957 392 c 0
 957 157 788 -19 534 -19 c 0
 364 -19 228 56 144 145 c 1xe8
EndSplineSet
Layer: 2
Layer: 3
EndChar
StartChar: four
Encoding: 262 52 6
GlifName: four
Width: 1121
Flags: W
HStem: 0 21G<739 895> 350 140<294 739 895 1005>
VStem: 739 156<0 350 490 1160>
LayerCount: 4
Back
SplineSet
1005 490 m 5
 1005 350 l 5
 894.750976562 350 l 5
 895 0.044921875 l 5
 739 -0.044921875 l 5
 738.750976562 350 l 5
 163 350 l 5
 95.984375 455.818359375 l 5
 748.984375 1439.81738281 l 5
 894 1404.04492188 l 5
 894.651367188 490 l 5
 1005 490 l 5
738.651367188 490 m 5
 738.180664062 1149.93164062 l 5
 300.23828125 490 l 5
 738.651367188 490 l 5
EndSplineSet
Fore
SplineSet
1005 490 m 5
 1005 350 l 5
 895 350 l 5
 895 0 l 5
 739 0 l 5
 739 350 l 5
 116 350 l 5
 116 456 l 5
 754 1416 l 5
 894 1416 l 5
 895 490 l 5
 1005 490 l 5
739 490 m 5
 738 1160 l 5
 294 490 l 5
 739 490 l 5
EndSplineSet
Layer: 2
Layer: 3
EndChar
StartChar: seven
Encoding: 265 55 9
GlifName: seven
Width: 1068
Flags: W
HStem: 0 21G<250 425.245> 1276 140<106 777>
LayerCount: 4
Back
Fore
SplineSet
106 1276 m 5
 106 1416 l 5
 962 1416 l 5
 962 1322 l 5
 417 0 l 5
 250 0 l 5
 777 1276 l 5
 106 1276 l 5
EndSplineSet
Layer: 2
Layer: 3
EndChar
StartChar: less
Encoding: 361 60 105
GlifName: less
Width: 923
Flags: W
VStem: 140 677
LayerCount: 4
Back
Fore
SplineSet
140 597 m 5
 748 951 l 5
 817 831 l 5
 307 541 l 5
 817 251 l 5
 748 131 l 5
 140 485 l 5
 140 597 l 5
EndSplineSet
Layer: 2
Layer: 3
EndChar
StartChar: equal
Encoding: 338 61 82
GlifName: equal
Width: 980
Flags: W
HStem: 314 134<140 840> 634 134<140 840>
LayerCount: 4
Back
Fore
SplineSet
140 634 m 5
 140 768 l 5
 840 768 l 5
 840 634 l 5
 140 634 l 5
140 314 m 5
 140 448 l 5
 840 448 l 5
 840 314 l 5
 140 314 l 5
EndSplineSet
Layer: 2
Layer: 3
EndChar
StartChar: greater
Encoding: 362 62 106
GlifName: greater
Width: 923
Flags: W
VStem: 106 677
LayerCount: 4
Back
Fore
SplineSet
783 597 m 5
 783 485 l 5
 175 131 l 5
 106 251 l 5
 616 541 l 5
 106 831 l 5
 175 951 l 5
 783 597 l 5
EndSplineSet
Layer: 2
Layer: 3
EndChar
StartChar: question
Encoding: 299 63 43
GlifName: question
Width: 888
Flags: W
HStem: -16 220<316.109 497.891> 1298 134<245.807 556.817>
VStem: 297 220<3.10925 184.891> 341 132<387.025 632.49> 652 150<903.812 1202.05>
LayerCount: 4
Back
Fore
SplineSet
407 204 m 4xe8
 472 204 517 159 517 94 c 4
 517 29 472 -16 407 -16 c 4
 342 -16 297 29 297 94 c 4
 297 159 342 204 407 204 c 4xe8
164 1193 m 5
 66 1293 l 5
 148 1371 264 1432 407 1432 c 4
 639 1432 802 1269 802 1052 c 4
 802 970 775 895 728 831 c 4
 670 752 555 698 516 630 c 4
 483 573 473 529 473 447 c 13
 472 387 l 5
 342 387 l 5
 342 387 341 422 341 446 c 4xd8
 341 548 349 622 407 705 c 4
 450 768 519 814 572 863 c 4
 622 909 652 974 652 1051 c 4
 652 1193 559 1298 407 1298 c 4
 301 1298 221 1248 164 1193 c 5
EndSplineSet
Layer: 2
Layer: 3
EndChar
StartChar: at
Encoding: 371 64 115
GlifName: at
Width: 1451
VWidth: 1000
Flags: W
HStem: -232 134<462.511 1213.49> -58 20G<1183 1265.48> 200 134<750.178 1042.61> 743 124<753.153 1145> 1180 134<464.655 1041.6>
VStem: 136 150<102.687 983.001> 525 150<405.918 669.43> 1145 150<216 328 440.593 743 867 1077.68>
LayerCount: 4
Back
Fore
SplineSet
777 1314 m 0
 928 1314 1067 1303 1170 1216 c 0
 1295 1110 1295 980 1295 867 c 2
 1295 216 l 1
 1145 216 l 1
 1145 328 l 1
 1085 242 990 200 870 200 c 0
 684 200 525 335 525 537 c 0
 525 643 572 726 634 779 c 0
 737 867 862 867 1000 867 c 2
 1145 867 l 1
 1145 964 1145 1033 1088 1098 c 0
 1023 1172 913 1180 778 1180 c 0
 624 1180 501 1175 414 1105 c 0
 286 1001 286 775 286 541 c 0
 286 271 295 75 414 -23 c 0
 494 -89 589 -98 768 -98 c 0
 999 -98 1109 -98 1257 -38 c 1
 1310 -163 l 1
 1144 -232 1001 -232 768 -232 c 0
 554 -232 429 -219 312 -121 c 0
 146 18 136 247 136 541 c 0
 136 836 146 1068 312 1203 c 0
 434 1302 579 1314 777 1314 c 0
675 537 m 0
 675 409 766 334 890 334 c 0
 978 334 1048 369 1089 423 c 0
 1145 497 1145 583 1145 743 c 1
 1000 743 l 2
 875 743 801 743 742 693 c 0
 704 661 675 605 675 537 c 0
EndSplineSet
Layer: 2
Layer: 3
EndChar
StartChar: B
Encoding: 270 66 14
GlifName: B_
Width: 1128
Flags: W
HStem: 0 140<312 763.994> 652 140<312 724.689> 1276 140<312 722.761>
VStem: 156 156<140 652 792 1276> 818 156<885.097 1184.52> 866 156<241.208 549.787>
LayerCount: 4
Back
Fore
SplineSet
312 652 m 1xf4
 312 140 l 1
 509 140 l 2
 634 140 734 140 804 218 c 0
 846 265 866 330 866 396 c 0
 866 464 844 530 804 574 c 0
 732 652 641 652 509 652 c 2
 312 652 l 1xf4
312 1276 m 5
 312 792 l 1
 491 792 l 2
 606 792 698 792 765 872 c 0
 799 913 818 973 818 1034 c 0xf8
 818 1095 800 1154 766 1195 c 0
 699 1275 612 1276 491 1276 c 2
 312 1276 l 5
156 1416 m 1
 491 1416 l 2
 616 1416 780 1416 892 1278 c 0
 950 1206 974 1119 974 1034 c 0xf8
 974 918 926 803 814 735 c 1
 957 667 1022 538 1022 396 c 0xf4
 1022 301 992 202 923 127 c 0
 805 0 649 0 509 0 c 2
 156 0 l 1
 156 1416 l 1
EndSplineSet
Layer: 2
Layer: 3
EndChar
StartChar: C
Encoding: 271 67 15
GlifName: C_
Width: 1080
Flags: W
HStem: -19 140<431.096 809.096> 1295 140<432.451 801.299>
VStem: 116 156<307.452 1109.37>
AnchorPoint: "DoubleTop" -17 0 basechar 0
AnchorPoint: "Apos" -17 0 basechar 0
AnchorPoint: "Center" -17 0 basechar 0
AnchorPoint: "Bottom" 604 0 basechar 0
AnchorPoint: "Top" 604 1416 basechar 0
LayerCount: 4
Back
Fore
SplineSet
604 1435 m 4
 757.549964912 1435 882.51845614 1380.792 978 1314 c 5
 898 1194 l 5
 818.270822165 1251.41052632 724.084507042 1295 604 1295 c 4
 459 1295 368 1230 322 1125 c 4
 275 1017 272 858 272 708 c 4
 272 558 275 399 322 291 c 0
 368 186 459 121 604.104492188 121 c 0
 734.363234339 121 847.396339384 172.287693944 927.814453125 240.025390625 c 1
 1016.18554688 123.974609375 l 1
 913.275972474 43.2667106169 772.522338001 -19 604.104492188 -19 c 0
 390 -19 245 86 177 238 c 0
 119 367 116 543 116 708 c 4
 116 876 120 1053 177 1178 c 4
 248 1334 395 1435 604 1435 c 4
EndSplineSet
Layer: 2
Layer: 3
EndChar
StartChar: G
Encoding: 284 71 28
GlifName: G_
Width: 1208
VWidth: 0
Flags: W
HStem: -19 140<431.071 776.929> 602 140<634 935> 1295 140<432.451 801.299>
VStem: 116 156<307.452 1109.37> 935 157<303.884 602>
AnchorPoint: "DoubleTop" 0 0 basechar 0
AnchorPoint: "Apos" 0 0 basechar 0
AnchorPoint: "Center" 0 0 basechar 0
AnchorPoint: "Bottom" 604 0 basechar 0
AnchorPoint: "Top" 604 1416 basechar 0
LayerCount: 4
Back
Fore
SplineSet
604 1435 m 4
 757.549964912 1435 882.51845614 1380.792 978 1314 c 5
 898 1194 l 5
 818.270822165 1251.41052632 724.084507042 1295 604 1295 c 4
 459 1295 368 1230 322 1125 c 4
 275 1017 272 858 272 708 c 4
 272 558 275 399 322 291 c 4
 368 186 459 121 604 121 c 4
 749 121 840 186 886 291 c 4
 922 373 932 476 935 602 c 5
 634 602 l 5
 634 742 l 5
 1092 742 l 5
 1092 544 1091 373 1031 238 c 4
 963 85 818 -19 604 -19 c 4
 390 -19 245 86 177 238 c 4
 119 367 116 543 116 708 c 4
 116 876 120 1053 177 1178 c 4
 248 1334 395 1435 604 1435 c 4
EndSplineSet
Layer: 2
Layer: 3
EndChar
StartChar: I
Encoding: 277 73 21
GlifName: I_
Width: 468
VWidth: 0
Flags: W
HStem: 0 21G<156 312>
VStem: 156 156<0 1416>
AnchorPoint: "DoubleTop" 6 0 basechar 0
AnchorPoint: "Apos" 6 0 basechar 0
AnchorPoint: "Center" -4 0 basechar 0
AnchorPoint: "Bottom" 233 0 basechar 0
AnchorPoint: "Top" 234 1416 basechar 0
LayerCount: 4
Back
Fore
SplineSet
312 1416 m 1
 312 0 l 1
 156 0 l 1
 156 1416 l 1
 312 1416 l 1
EndSplineSet
Layer: 2
Layer: 3
EndChar
StartChar: K
Encoding: 290 75 34
GlifName: K_
Width: 1171
Flags: W
HStem: 0 21G<156 312 905.994 1105>
VStem: 156 156<0 400 601 1416>
AnchorPoint: "DoubleTop" 6 0 basechar 0
AnchorPoint: "Apos" 6 0 basechar 0
AnchorPoint: "Top" -4 0 basechar 0
AnchorPoint: "Center" -4 0 basechar 0
AnchorPoint: "Bottom" 590 0 basechar 0
LayerCount: 4
Back
Fore
SplineSet
312 601 m 1
 910 1416 l 1
 1087 1416 l 1
 582 735 l 1
 1105 0 l 1
 920 0 l 1
 483 624 l 1
 312 400 l 1
 312 0 l 1
 156 0 l 1
 156 1416 l 1
 312 1416 l 1
 312 601 l 1
EndSplineSet
Layer: 2
Layer: 3
EndChar
StartChar: L
Encoding: 279 76 23
GlifName: L_
Width: 962
Flags: W
HStem: 0 140<312 876>
VStem: 156 156<140 1416>
AnchorPoint: "DoubleTop" 2 0 basechar 0
AnchorPoint: "Apos" 476 1416 basechar 0
AnchorPoint: "Bottom" 517 0 basechar 0
AnchorPoint: "Center" 312 722 basechar 0
AnchorPoint: "Top" 235 1416 basechar 0
LayerCount: 4
Back
Fore
SplineSet
156 1416 m 5
 312 1416 l 5
 312 140 l 5
 876 140 l 5
 876 0 l 5
 156 0 l 5
 156 1416 l 5
EndSplineSet
Layer: 2
Layer: 3
EndChar
StartChar: N
Encoding: 289 78 33
GlifName: N_
Width: 1246
VWidth: 0
Flags: W
HStem: 0 21G<156 312 922.067 1090>
VStem: 156 156<0 1136> 934 156<280 1416>
AnchorPoint: "DoubleTop" -6 0 basechar 0
AnchorPoint: "Apos" -6 0 basechar 0
AnchorPoint: "Center" -12 0 basechar 0
AnchorPoint: "Bottom" 623 0 basechar 0
AnchorPoint: "Top" 623 1416 basechar 0
LayerCount: 4
Back
Fore
SplineSet
934 1416 m 5
 1090 1416 l 5
 1090 0 l 5
 933 0 l 5
 312 1136 l 5
 312 0 l 5
 156 0 l 5
 156 1416 l 5
 313 1416 l 5
 934 280 l 5
 934 1416 l 5
EndSplineSet
Layer: 2
Layer: 3
EndChar
StartChar: Q
Encoding: 286 81 30
GlifName: Q_
Width: 1228
VWidth: 0
Flags: W
HStem: -19 140<438.945 778.004> 1295 140<438.945 789.055>
VStem: 116 156<311.742 1104.26> 956 156<311.742 1104.26>
LayerCount: 4
Back
Fore
SplineSet
614 1295 m 4
 469 1295 373 1229 326 1127 c 4
 273 1012 272 850 272 708 c 4
 272 566 273 404 326 289 c 4
 373 187 469 121 614 121 c 4
 759 121 855 187 902 289 c 4
 955 404 956 566 956 708 c 4
 956 850 955 1012 902 1127 c 4
 855 1229 759 1295 614 1295 c 4
614 1435 m 4
 830 1435 977 1329 1046 1180 c 4
 1112 1038 1112 856 1112 708 c 4
 1112 560 1112 378 1046 236 c 4
 1016 170 970 113 910 69 c 5
 1132 -154 l 5
 1028 -258 l 5
 768 1 l 5
 721 -12 670 -19 614 -19 c 4
 398 -19 251 87 182 236 c 4
 116 378 116 560 116 708 c 4
 116 856 116 1038 182 1180 c 4
 251 1329 398 1435 614 1435 c 4
EndSplineSet
Layer: 2
Layer: 3
EndChar
StartChar: S
Encoding: 291 83 35
GlifName: S_
Width: 1055
Flags: W
HStem: -19 140<296.473 688.548> 1295 140<360.996 741.613>
VStem: 98 156<918.955 1189.35> 813 156<239.194 530.884>
AnchorPoint: "DoubleTop" 9 0 basechar 0
AnchorPoint: "Apos" 9 0 basechar 0
AnchorPoint: "Center" 9 0 basechar 0
AnchorPoint: "Bottom" 521 0 basechar 0
AnchorPoint: "Top" 521 1416 basechar 0
LayerCount: 4
Back
Fore
SplineSet
969 386 m 4
 969 188 817 -19 521 -19 c 4
 366.241610738 -19 201.362416107 40.0923076923 80 107 c 5
 146 234 l 5
 246.684931507 177.491071429 389.476535096 121 521 121 c 4
 730 121 813 267 813 386 c 4
 813 487 760.20761879 563.349830056 693 603 c 4
 578.670237835 670.450604278 432 653 291 733 c 4
 188.188191397 791.332941052 98 904 98 1056 c 4
 98 1246 249 1435 521 1435 c 4
 657.909774436 1435 806.639097744 1385.44339623 914 1332 c 5
 852 1203 l 5
 761.289719626 1250.04545455 632.395638629 1295 521 1295 c 4
 339 1295 254 1171 254 1056 c 4
 254 959 309.843871171 887.724363522 375 851 c 4
 485 789 641 804 781 719 c 4
 883.763094031 656.608121481 969 540 969 386 c 4
EndSplineSet
Layer: 2
Layer: 3
EndChar
StartChar: U
Encoding: 280 85 24
GlifName: U_
Width: 1188
Flags: W
HStem: -19 140<427.313 760.687>
VStem: 136 156<267.371 1416> 896 156<267.371 1416>
AnchorPoint: "DoubleTop" 13 0 basechar 0
AnchorPoint: "Apos" 13 0 basechar 0
AnchorPoint: "Center" 594 1536 basechar 0
AnchorPoint: "Bottom" 594 0 basechar 0
AnchorPoint: "Top" 594 1416 basechar 0
LayerCount: 4
Back
Fore
SplineSet
136 1416 m 1
 292 1416 l 1
 292 571 l 2
 292 428 292 308 366 219 c 0
 415 160 493 121 594 121 c 0
 695 121 773 160 822 219 c 0
 896 308 896 428 896 571 c 2
 896 1416 l 1
 1052 1416 l 1
 1052 571 l 2
 1052 405 1052 265 948 137 c 0
 873 45 748 -19 594 -19 c 0
 440 -19 315 45 240 137 c 0
 136 265 136 405 136 571 c 2
 136 1416 l 1
EndSplineSet
Layer: 2
Layer: 3
EndChar
StartChar: V
Encoding: 281 86 25
GlifName: V_
Width: 1170
Flags: W
HStem: 0 21G<503.22 666.78>
LayerCount: 4
Back
Fore
SplineSet
30 1416 m 5
 193 1416 l 5
 585 211 l 5
 977 1416 l 5
 1140 1416 l 5
 660 0 l 5
 510 0 l 5
 30 1416 l 5
EndSplineSet
Layer: 2
Layer: 3
EndChar
StartChar: W
Encoding: 282 87 26
GlifName: W_
Width: 1460
VWidth: 0
Flags: W
HStem: 0 21G<346.607 508.958 951.042 1113.39>
AnchorPoint: "DoubleTop" -92 0 basechar 0
AnchorPoint: "Apos" -92 0 basechar 0
AnchorPoint: "Bottom" -72 0 basechar 0
AnchorPoint: "Center" -72 0 basechar 0
AnchorPoint: "Top" 730 1416 basechar 0
LayerCount: 4
Back
Fore
SplineSet
200 1416 m 1
 442 275 l 1
 655 986 l 1
 805 986 l 1
 1018 275 l 1
 1260 1416 l 1
 1420 1416 l 1
 1109 0 l 1
 957 0 l 1
 730 762 l 1
 503 0 l 1
 351 0 l 1
 40 1416 l 1
 200 1416 l 1
EndSplineSet
Layer: 2
Layer: 3
EndChar
StartChar: X
Encoding: 292 88 36
GlifName: X_
Width: 1126
Flags: W
HStem: 0 21G<66 251.769 874.231 1060>
LayerCount: 4
Back
Fore
SplineSet
81 1416 m 5
 256 1416 l 1
 563 846 l 1
 870 1416 l 1
 1045 1416 l 1
 651 722 l 1
 1060 0 l 1
 885 0 l 1
 563 598 l 1
 241 0 l 1
 66 0 l 1
 475 722 l 1
 81 1416 l 5
EndSplineSet
Layer: 2
Layer: 3
EndChar
StartChar: Y
Encoding: 293 89 37
GlifName: Y_
Width: 1062
VWidth: 0
Flags: W
HStem: 0 21G<453 609>
VStem: 453 156<0 506>
AnchorPoint: "DoubleTop" -22 0 basechar 0
AnchorPoint: "Apos" -22 0 basechar 0
AnchorPoint: "Bottom" -1 0 basechar 0
AnchorPoint: "Center" -1 0 basechar 0
AnchorPoint: "Top" 531 1416 basechar 0
LayerCount: 4
Back
Fore
SplineSet
30 1416 m 1
 199 1416 l 1
 531 672 l 1
 863 1416 l 1
 1032 1416 l 1
 609 506 l 1
 609 0 l 1
 453 0 l 1
 453 506 l 1
 30 1416 l 1
EndSplineSet
Layer: 2
Layer: 3
EndChar
StartChar: Z
Encoding: 294 90 38
GlifName: Z_
Width: 1059
VWidth: 0
Flags: W
HStem: 0 140<282 963> 1276 140<121 757>
AnchorPoint: "DoubleTop" -21 0 basechar 0
AnchorPoint: "Apos" -21 0 basechar 0
AnchorPoint: "Center" -11 0 basechar 0
AnchorPoint: "Bottom" 530 0 basechar 0
AnchorPoint: "Top" 530 1416 basechar 0
LayerCount: 4
Back
Fore
SplineSet
121 1276 m 1
 121 1416 l 1
 943 1416 l 1
 943 1315 l 1
 282 140 l 1
 963 140 l 1
 963 0 l 1
 96 0 l 1
 96 101 l 1
 757 1276 l 1
 121 1276 l 1
EndSplineSet
Layer: 2
Layer: 3
EndChar
StartChar: bracketleft
Encoding: 327 91 71
GlifName: bracketleft
Width: 614
VWidth: 0
Flags: W
HStem: -456 124<296 488> 1414 124<296 488>
VStem: 156 332<-456 -332 1414 1538> 156 140<-332 1414>
LayerCount: 4
Back
Fore
SplineSet
156 1538 m 5xe0
 488 1538 l 5
 488 1414 l 5xe0
 296 1414 l 5
 296 -332 l 5xd0
 488 -332 l 5
 488 -456 l 5
 156 -456 l 5
 156 1538 l 5xe0
EndSplineSet
Layer: 2
Layer: 3
EndChar
StartChar: backslash
Encoding: 322 92 66
GlifName: backslash
Width: 890
VWidth: 0
Flags: W
LayerCount: 4
Back
Fore
SplineSet
86 1416 m 1
 233 1416 l 1
 804 -90 l 1
 657 -90 l 1
 86 1416 l 1
EndSplineSet
Layer: 2
Layer: 3
EndChar
StartChar: bracketright
Encoding: 305 93 49
GlifName: bracketright
Width: 614
VWidth: 0
Flags: W
HStem: -456 124<126 318> 1414 124<126 318>
VStem: 126 332<-456 -332 1414 1538> 318 140<-332 1414>
LayerCount: 4
Back
Fore
SplineSet
458 1538 m 5xe0
 458 -456 l 5
 126 -456 l 5
 126 -332 l 5xe0
 318 -332 l 5
 318 1414 l 5xd0
 126 1414 l 5
 126 1538 l 5
 458 1538 l 5xe0
EndSplineSet
Layer: 2
Layer: 3
EndChar
StartChar: underscore
Encoding: 385 95 129
GlifName: underscore
Width: 800
Flags: W
HStem: -150 150<10 790>
LayerCount: 4
Back
Fore
SplineSet
10 0 m 1
 790 0 l 1
 790 -150 l 5
 10 -150 l 5
 10 0 l 1
EndSplineSet
Layer: 2
Layer: 3
EndChar
StartChar: c
Encoding: 309 99 53
GlifName: c
Width: 930
Flags: W
HStem: -16 134<364.816 699.43> 964 134<365.045 690.051>
VStem: 100 150<243.538 837.921>
AnchorPoint: "DoubleTop" -20 0 basechar 0
AnchorPoint: "Apos" -20 0 basechar 0
AnchorPoint: "Center" -10 0 basechar 0
AnchorPoint: "Bottom" 510 0 basechar 0
AnchorPoint: "Top" 510 1082 basechar 0
LayerCount: 4
Back
Fore
SplineSet
510 1098 m 4
 635.693693694 1098 751.567567568 1050.41346154 837 997 c 5
 766 879 l 5
 697.667985676 922.5625 604.315789474 964 510 964 c 4
 402 964 344 914 306 859 c 4
 250 777 250 645 250 547 c 4
 250 429 250 315 301 230 c 4
 351 147 435 118 510 118 c 4
 607.204545455 118 714.784090909 161.953488372 783 208 c 5
 859 94 l 5
 769.538028169 33.6194690265 635.836619718 -16 510 -16 c 4
 352 -16 229 63 169 167 c 4
 101 285 100 405 100 547 c 4
 100 664 101 800 169 915 c 4
 231 1018 349 1098 510 1098 c 4
EndSplineSet
Layer: 2
Layer: 3
EndChar
StartChar: f
Encoding: 315 102 59
GlifName: f
Width: 715
Flags: W
HStem: 0 21G<230 380> 958 124<80 230 380 580> 1378 134<414.602 633.292>
VStem: 230 150<0 958 1082 1344.23>
LayerCount: 4
Back
Fore
SplineSet
230 1143 m 6
 230 1248 230 1325 285 1403 c 4
 329.615494178 1466.27288265 408 1512 515 1512 c 4
 560.694444444 1512 610.277777778 1504.44444444 655 1495 c 5
 628 1363 l 5
 594.518518519 1370.5 549.527777778 1378 515 1378 c 4
 465 1378 433.271220576 1361.46937225 411 1330 c 4
 380 1286.19680851 380 1234 380 1143 c 6
 380 1082 l 5
 580 1082 l 5
 580 958 l 5
 380 958 l 5
 380 0 l 5
 230 0 l 5
 230 958 l 5
 80 958 l 5
 80 1082 l 5
 230 1082 l 5
 230 1143 l 6
EndSplineSet
Layer: 2
Layer: 3
EndChar
StartChar: g
Encoding: 314 103 58
GlifName: g
Width: 1036
Flags: W
HStem: -427 134<301.238 748.786> -37 134<342.895 747.958> 254 134<358.799 640.187> 964 134<359.813 640.156> 964 118<501.567 640.624 796 946>
VStem: 115 150<-252.315 -76.399 494.425 857.836> 170 150<123.29 281.584> 725 150<477.414 874.515> 785 150<-252.32 -77.7478>
AnchorPoint: "Bottom" 525 -414 basechar 0
AnchorPoint: "Top" 500 1082 basechar 0
LayerCount: 4
Back
SplineSet
940 958 m 5
 610 958 l 5
 610 1082 l 5
 940 1082 l 5
 940 958 l 5
332.052734375 894.86328125 m 4
 311.190429688 869.952148438 295.662257111 836.024835406 286.927734375 798.594726562 c 4
 278.028320312 760.458007812 275 719.051757812 275 676 c 4
 275 632.946289062 278.028092163 591.544119976 286.928710938 553.404296875 c 4
 295.6640625 515.97265625 311.188342438 482.04969236 332.052734375 457.13671875 c 4
 351.428710938 434.000976562 377.306302656 416.067506418 405.426757812 404.92578125 c 4
 434.21484375 393.51953125 466.534179688 388 500 388 c 4
 533.465820312 388 565.78563792 393.518315643 594.573242188 404.92578125 c 4
 622.692382812 416.068359375 648.571053817 434.00117358 667.947265625 457.13671875 c 4
 688.810546875 482.047851562 704.337742889 515.975164594 713.072265625 553.405273438 c 4
 721.971679688 591.541992188 725 632.948242188 725 676 c 4
 725 719.053710938 721.971907837 760.455880024 713.071289062 798.595703125 c 4
 704.3359375 836.02734375 688.810659254 869.949471571 667.947265625 894.862304688 c 4
 648.571289062 917.999023438 622.692838994 935.930327333 594.573242188 947.073242188 c 4
 565.784179688 958.481445313 533.467773438 964 500 964 c 4
 466.532226562 964 434.214391995 958.480120873 405.427734375 947.07421875 c 4
 377.305664062 935.931640625 351.428413109 917.999272863 332.052734375 894.86328125 c 4
211.947265625 975.13671875 m 4
 247.262695312 1017.3046875 293.538573335 1049.32787153 344.607421875 1069.56445312 c 4
 395.012695312 1089.53808594 448.286132812 1098 500 1098 c 4
 551.713867188 1098 604.98911659 1089.53675297 655.391601562 1069.56542969 c 4
 706.462890625 1049.32910156 752.736960503 1017.30439925 788.052734375 975.13671875 c 4
 825.928710938 929.912109375 847.860038186 877.60510276 859.915039062 825.943359375 c 4
 871.8046875 774.990234375 875 724.431640625 875 676 c 4
 875 627.56640625 871.805700878 577.011710158 859.9140625 526.055664062 c 4
 847.857421875 474.392578125 825.928709532 422.089686229 788.052734375 376.86328125 c 4
 752.737304688 334.694335938 706.463725851 302.671255137 655.391601562 282.434570312 c 4
 604.98828125 262.462890625 551.715820312 254 500 254 c 4
 448.284179688 254 395.011727454 262.462912591 344.608398438 282.434570312 c 4
 293.537109375 302.670898438 247.262110591 334.694822795 211.947265625 376.862304688 c 4
 174.071289062 422.087890625 152.140180932 474.39494837 140.084960938 526.056640625 c 4
 128.1953125 577.008789062 125 627.567382812 125 676 c 4
 125 724.43359375 128.194299122 774.988289842 140.0859375 825.944335938 c 4
 152.142578125 877.607421875 174.069891621 929.909690863 211.947265625 975.13671875 c 4
311.333984375 419.735351562 m 5
 374.666015625 298.263671875 l 5
 361.102539062 292.62109375 346.204434014 280.504301747 336.001953125 263.887695312 c 4
 325.9921875 247.584960938 319.982421875 226.486328125 319.982421875 205.461914062 c 4
 319.982421875 186.453125 324.232460964 169.443379473 332.198242188 153.950195312 c 4
 339.668945312 139.419921875 350.679560166 127.040836164 362.62890625 118.5625 c 4
 374.462890625 110.166015625 389.171115478 104.128053304 405.459960938 100.9140625 c 4
 421.73828125 97.7021484375 442.895507812 97 469 97 c 4
 525 97 l 5
 525 -37 l 5
 469 -37 l 4
 441.745117188 -37 409.187912558 -37.0486900076 373.116210938 -29.93359375 c 4
 337.053710938 -22.8203125 301.022643877 -8.84877484413 269.337890625 13.6318359375 c 4
 237.767578125 36.03125 212.818472159 65.0952866378 195.889648438 98.0205078125 c 4
 178.69140625 131.469726562 169.982421875 168.08203125 169.982421875 205.461914062 c 4
 169.982421875 247.97265625 181.255964678 290.493099407 204.48828125 328.331054688 c 4
 228.38671875 367.25390625 264.725585938 400.342773438 311.333984375 419.735351562 c 5
115 -165 m 4
 115 -132.376953125 121.665905665 -99.7792477507 135.342773438 -69.1650390625 c 4
 152.506835938 -30.7451171875 179.925258062 2.23571959324 213.76953125 27.451171875 c 4
 247.411132812 52.515625 285.256509374 68.5344228744 322.372070312 78.470703125 c 4
 394.930664062 97.8955078125 464.525390625 97 525 97 c 4
 585.47265625 97 655.073727296 97.8973196945 727.625 78.4716796875 c 4
 764.747070312 68.5322265625 802.58628199 52.5180405075 836.232421875 27.4501953125 c 4
 870.073242188 2.2373046875 897.492644405 -30.7457856022 914.657226562 -69.166015625 c 4
 928.333984375 -99.779296875 935 -132.376953125 935 -165 c 4
 935 -197.623046875 928.333445638 -230.21948589 914.657226562 -260.833984375 c 4
 897.494140625 -299.25390625 870.075092613 -332.236190277 836.23046875 -357.451171875 c 4
 802.587890625 -382.515625 764.744849852 -398.532204587 727.625 -408.470703125 c 4
 655.07421875 -427.895507812 585.47265625 -427 525 -427 c 4
 464.52734375 -427 394.92689437 -427.894997755 322.374023438 -408.470703125 c 4
 285.255859375 -398.533203125 247.412211462 -382.515487975 213.76953125 -357.451171875 c 4
 179.924804688 -332.236328125 152.506339929 -299.254668133 135.341796875 -260.833007812 c 4
 121.666015625 -230.220703125 115 -197.622070312 115 -165 c 4
265 -165 m 4
 265 -181.112304688 268.455126696 -197.28025174 274.658203125 -211.166015625 c 4
 282.27734375 -228.221679688 294.959397367 -243.45681117 309.83984375 -254.541992188 c 4
 324.921875 -265.77734375 343.861315776 -274.335007063 365.436523438 -280.111328125 c 4
 410.272460938 -292.115234375 463.951171875 -293 525 -293 c 4
 586.048828125 -293 639.726483254 -292.114938365 684.564453125 -280.111328125 c 4
 706.137695312 -274.3359375 725.078696206 -265.77811048 740.16015625 -254.541992188 c 4
 755.040039062 -243.456054688 767.722789901 -228.222715955 775.342773438 -211.165039062 c 4
 781.544921875 -197.28125 785 -181.112304688 785 -165 c 4
 785 -148.88671875 781.54562273 -132.717460331 775.342773438 -118.833984375 c 4
 767.72265625 -101.778320312 755.041183018 -86.5469845409 740.158203125 -75.4580078125 c 4
 725.080078125 -64.2236328125 706.135803263 -55.6638343758 684.564453125 -49.888671875 c 4
 639.727539062 -37.884765625 586.048828125 -37 525 -37 c 4
 463.953125 -37 410.268333244 -37.884915075 365.438476562 -49.8876953125 c 4
 343.860351562 -55.6650390625 324.923341756 -64.2223376684 309.83984375 -75.458984375 c 4
 294.959960938 -86.5439453125 282.275956617 -101.77911346 274.657226562 -118.833984375 c 4
 268.455078125 -132.717773438 265 -148.88671875 265 -165 c 4
EndSplineSet
Fore
SplineSet
525 -37 m 4xe480
 419 -37 265 -38 265 -165 c 4
 265 -292 419 -293 525 -293 c 4
 631 -293 785 -292 785 -165 c 4
 785 -38 631 -37 525 -37 c 4xe480
500 1098 m 4xf2
 533.394957983 1098 568.549996145 1095 608 1082 c 5
 946 1082 l 5
 946 958 l 5
 796 958 l 5
 856.581081081 885 875 790 875 676 c 4
 875 552 851.710075354 453.243204932 788 377 c 4
 727 304 625 254 500 254 c 4
 450 254 398 261.592592593 349 283 c 5
 332 265.552631579 320 235.789473684 320 205 c 4xeb
 320 97.105501907 444.983155947 97 505 97 c 4
 590.911330049 97 648.45745036 99.5582611174 728 78 c 4
 835 49 935 -30 935 -165 c 4
 935 -300 835.285904842 -380.076271342 728 -408 c 4
 655 -427 585 -427 525 -427 c 4
 465 -427 394 -427 322 -408 c 4
 215 -380 115 -300 115 -165 c 4xec80
 115 -62.1739130435 178.404958678 15.437454084 252 50 c 5
 198.737843552 77.0042503709 170 145.239263804 170 205 c 4
 170 255.280622603 187.819472617 315.465598917 240 350 c 5
 155.378640777 428.405063291 125 536.727848101 125 676 c 4
 125 800 148.289924646 898.756795068 212 975 c 4
 273 1048 375 1098 500 1098 c 4xf2
500 964 m 4xf1
 332 964 275 846 275 676 c 4
 275 506 332 388 500 388 c 4
 668 388 725 506 725 676 c 4
 725 846 668 964 500 964 c 4xf1
EndSplineSet
Layer: 2
Layer: 3
EndChar
StartChar: l
Encoding: 306 108 50
GlifName: l
Width: 430
VWidth: 0
Flags: W
HStem: -16 133<304.954 385.507>
VStem: 140 150<137.843 1496>
AnchorPoint: "Center" 290 722 basechar 0
AnchorPoint: "Apos" 389 1496 basechar 0
AnchorPoint: "Bottom" 215 0 basechar 0
AnchorPoint: "Top" 215 1456 basechar 0
LayerCount: 4
Back
Fore
SplineSet
140 1496 m 1
 290 1496 l 1
 290 223 l 2
 290 172 294 155 312 137 c 0
 328 121 349 117 364 117 c 0
 374 117 383 119 383 119 c 1
 408 -6 l 1
 386 -14 365 -16 345 -16 c 0
 269 -16 206.240599197 13.1490370048 169 73 c 0
 141 118 140 158 140 217 c 2
 140 1496 l 1
EndSplineSet
Layer: 2
Layer: 3
EndChar
StartChar: o
Encoding: 308 111 52
GlifName: o
Width: 1050
Flags: W
HStem: -16 134<365.875 684.125> 964 134<365.875 684.125>
VStem: 100 150<243.661 838.339> 800 150<243.661 838.339>
AnchorPoint: "DoubleTop" -45 0 basechar 0
AnchorPoint: "Apos" -45 0 basechar 0
AnchorPoint: "Center" -45 0 basechar 0
AnchorPoint: "Bottom" 525 0 basechar 0
AnchorPoint: "Top" 525 1082 basechar 0
LayerCount: 4
Back
Fore
SplineSet
525 964 m 4
 436 964 367 932 326 885 c 4
 250 798 250 669 250 541 c 4
 250 413 250 284 326 197 c 4
 367 150 436 118 525 118 c 4
 614 118 683 150 724 197 c 4
 800 284 800 413 800 541 c 4
 800 669 800 798 724 885 c 4
 683 932 614 964 525 964 c 4
525 1098 m 4
 662 1098 772 1045 838 972 c 4
 950 848 950 688 950 541 c 4
 950 394 950 234 838 110 c 4
 772 37 662 -16 525 -16 c 4
 388 -16 278 37 212 110 c 4
 100 234 100 394 100 541 c 4
 100 688 100 848 212 972 c 4
 278 1045 388 1098 525 1098 c 4
EndSplineSet
Layer: 2
Layer: 3
EndChar
StartChar: p
Encoding: 318 112 62
GlifName: p
Width: 1070
Flags: W
HStem: -16 134<406.127 704.457> 964 134<406.115 704.674>
VStem: 140 150<-414 117 241.242 840.758 967 1082> 820 150<242.001 839.569>
LayerCount: 4
Back
Fore
SplineSet
555 964 m 4
 462 964 391 923 350 865 c 4
 291 782 290 664 290 541 c 4
 290 418 291 300 350 217 c 4
 391 159 462 118 555 118 c 4
 648 118 719 159 760 217 c 4
 819 300 820 418 820 541 c 4
 820 664 819 782 760 865 c 4
 719 923 648 964 555 964 c 4
290 1082 m 5
 290 967 l 5
 360 1053 448 1098 575 1098 c 4
 719 1098 827 1030 890 938 c 4
 967 819 970 674 970 541 c 4
 970 408 970 261 890 144 c 4
 825 53 719 -16 575 -16 c 4
 447 -16 361 31 290 117 c 5
 290 -414 l 5
 140 -414 l 5
 140 1082 l 5
 290 1082 l 5
EndSplineSet
Layer: 2
Layer: 3
EndChar
StartChar: r
Encoding: 317 114 61
GlifName: r
Width: 715
Flags: W
HStem: 0 21G<140 290> 964 134<382.903 618.521>
VStem: 140 150<0 865.757 971 1082>
AnchorPoint: "DoubleTop" 0 0 basechar 0
AnchorPoint: "Apos" 0 0 basechar 0
AnchorPoint: "Center" 0 0 basechar 0
AnchorPoint: "Bottom" 214 0 basechar 0
AnchorPoint: "Top" 445 1082 basechar 0
LayerCount: 4
Back
Fore
SplineSet
535 1098 m 0
 573 1098 608 1093 645 1085 c 1
 618 952 l 5
 584.01 959.857142857 546.90960396 964 515 964 c 0
 437 964 377 927 341 876 c 0
 290 804 290 715 290 556 c 2
 290 0 l 1
 140 0 l 1
 140 1082 l 1
 290 1082 l 1
 290 971 l 1
 348 1057 432 1098 535 1098 c 0
EndSplineSet
Layer: 2
Layer: 3
EndChar
StartChar: t
Encoding: 320 116 64
GlifName: t
Width: 681
Flags: W
HStem: -16 134<395.657 604.948> 958 124<80 230 380 580>
VStem: 230 150<174.027 958 1082 1316>
AnchorPoint: "DoubleTop" -20 0 basechar 0
AnchorPoint: "Apos" 688 1494 basechar 0
AnchorPoint: "Top" 10 0 basechar 0
AnchorPoint: "Center" 10 0 basechar 0
AnchorPoint: "Bottom" 473 0 basechar 0
LayerCount: 4
Back
Fore
SplineSet
475 118 m 0
 516 118 557 134 589 149 c 1
 647 26 l 1
 596 2 535 -16 475 -16 c 0
 347 -16 264 64 240 150 c 0
 230 186 230 208 230 340 c 2
 230 958 l 5
 80 958 l 5
 80 1082 l 5
 230 1082 l 5
 230 1316 l 1
 380 1316 l 1
 380 1082 l 1
 580 1082 l 1
 580 958 l 1
 380 958 l 1
 380 380 l 2
 380 211 380 195 389 173 c 0
 404 135 438 118 475 118 c 0
EndSplineSet
Layer: 2
Layer: 3
EndChar
StartChar: u
Encoding: 321 117 65
GlifName: u
Width: 1050
Flags: W
HStem: -16 134<363.767 662.081> 0 21G<760 910>
VStem: 120 150<214.423 1082> 760 150<0 112 217.927 1082>
AnchorPoint: "Apos" -14 78 basechar 0
AnchorPoint: "Center" 515 1202 basechar 0
AnchorPoint: "Bottom" 515 0 basechar 0
AnchorPoint: "Top" 515 1082 basechar 0
LayerCount: 4
Back
Fore
SplineSet
495 -16 m 4xb0
 357 -16 250 46 189 134 c 4
 120 238 120 351 120 496 c 6
 120 1082 l 5
 270 1082 l 5
 270 496 l 6
 270 360 270 276 318 208 c 4
 357 153 427 118 515 118 c 4xb0
 602 118 670 154 709 208 c 4
 760 278 760 360 760 496 c 6
 760 1082 l 5
 910 1082 l 5
 910 0 l 5
 760 0 l 5x70
 760 112 l 5
 692 29 602 -16 495 -16 c 4xb0
EndSplineSet
Layer: 2
Layer: 3
EndChar
StartChar: v
Encoding: 301 118 45
GlifName: v
Width: 950
Flags: W
HStem: 0 21G<396.29 553.71>
AnchorPoint: "DoubleTop" -17 0 basechar 0
AnchorPoint: "Apos" -17 0 basechar 0
AnchorPoint: "Bottom" -38 0 basechar 0
AnchorPoint: "Center" -38 0 basechar 0
AnchorPoint: "Top" 475 1082 basechar 0
LayerCount: 4
Back
Fore
SplineSet
403 0 m 1
 40 1082 l 1
 197 1082 l 1
 475 192 l 1
 753 1082 l 1
 910 1082 l 1
 547 0 l 1
 403 0 l 1
EndSplineSet
Layer: 2
Layer: 3
EndChar
StartChar: w
Encoding: 300 119 44
GlifName: w
Width: 1368
Flags: W
HStem: 0 21G<304.213 460.35 907.65 1063.79>
AnchorPoint: "DoubleTop" 1 0 basechar 0
AnchorPoint: "Apos" 1 0 basechar 0
AnchorPoint: "Bottom" 1 0 basechar 0
AnchorPoint: "Center" 1 0 basechar 0
AnchorPoint: "Top" 684 1082 basechar 0
LayerCount: 4
Back
Fore
SplineSet
309 0 m 1
 50 1082 l 1
 203 1082 l 1
 389 248 l 1
 611 1082 l 1
 757 1082 l 1
 979 248 l 1
 1165 1082 l 1
 1318 1082 l 1
 1059 0 l 1
 913 0 l 1
 684 856 l 1
 455 0 l 1
 309 0 l 1
EndSplineSet
Layer: 2
Layer: 3
EndChar
StartChar: x
Encoding: 324 120 68
GlifName: x
Width: 910
VWidth: 0
Flags: W
HStem: 0 21G<50 230.211 679.789 860>
LayerCount: 4
Back
Fore
SplineSet
860 0 m 5
 691 0 l 5
 455 421 l 5
 219 0 l 5
 50 0 l 5
 370 545 l 5
 55 1082 l 5
 224 1082 l 5
 455 669 l 5
 686 1082 l 5
 855 1082 l 5
 540 545 l 5
 860 0 l 5
EndSplineSet
Layer: 2
Layer: 3
EndChar
StartChar: y
Encoding: 121 121 69
GlifName: y
Width: 947
Flags: W
HStem: -427 134<73.4958 333.461>
AnchorPoint: "Top" 474 1082 basechar 0
LayerCount: 2
Back
SplineSet
798.784179688 1200.70898438 m 1
 933.215820312 1163.29101562 l 1
 528.215820312 -169.708984375 l 4
 519.390625 -198.752929688 509.366210938 -231.38671875 491.965820312 -264.616210938 c 4
 474.58984375 -297.80078125 451.018554688 -328.89453125 420.61328125 -354.61328125 c 4
 359.2265625 -406.5390625 280.9453125 -426.990234375 207.909179688 -427 c 4
 148.954101562 -427 92.4189453125 -415.060546875 40.220703125 -397.015625 c 5
 87.779296875 -270.984375 l 5
 128.143554688 -284.9375 168.928710938 -293 207.909179688 -293 c 4
 254.353515625 -292.994140625 298.109375 -279.407226562 327.904296875 -254.204101562 c 4
 343.063476562 -241.381835938 356.498046875 -224.260742188 366.805664062 -204.576171875 c 4
 377.088867188 -184.936523438 385.259765625 -160.349609375 393.784179688 -132.290039062 c 4
 798.784179688 1200.70898438 l 1
574.317382812 16.4462890625 m 1
 441.682617188 -26.4453125 l 1
 22.6826171875 1160.5546875 l 1
 155.317382812 1203.44628906 l 1
 574.317382812 16.4462890625 l 1
EndSplineSet
Fore
SplineSet
548 -105 m 6
 503 -254 475 -308 421 -355 c 4
 360 -407 281 -427 208 -427 c 4
 151 -427 95 -416 45 -399 c 5
 81 -269 l 5
 123 -284 167 -293 208 -293 c 4
 254 -293 298 -279 328 -254 c 4
 363 -224 375 -197 433 -2 c 5
 40 1082 l 5
 197 1082 l 5
 500 194 l 5
 752 1082 l 5
 907 1082 l 5
 548 -105 l 6
EndSplineSet
EndChar
StartChar: z
Encoding: 326 122 70
GlifName: z
Width: 920
VWidth: 0
Flags: W
HStem: 0 134<285 820> 948 134<107 626>
AnchorPoint: "DoubleTop" 7 0 basechar 0
AnchorPoint: "Apos" 7 0 basechar 0
AnchorPoint: "Center" 38 0 basechar 0
AnchorPoint: "Bottom" 460 0 basechar 0
AnchorPoint: "Top" 460 1082 basechar 0
LayerCount: 4
Back
Fore
SplineSet
820 134 m 1
 820 0 l 1
 100 0 l 1
 100 108 l 1
 626 948 l 1
 107 948 l 1
 107 1082 l 1
 811 1082 l 1
 811 974 l 1
 285 134 l 1
 820 134 l 1
EndSplineSet
Layer: 2
Layer: 3
EndChar
StartChar: bar
Encoding: 332 124 76
GlifName: bar
Width: 452
VWidth: 0
Flags: W
VStem: 156 140<-456 1538>
LayerCount: 4
Back
Fore
SplineSet
156 1538 m 5
 296 1538 l 5
 296 -456 l 5
 156 -456 l 5
 156 1538 l 5
EndSplineSet
Layer: 2
Layer: 3
EndChar
StartChar: asciitilde
Encoding: 435 126 179
GlifName: asciitilde
Width: 1074
VWidth: 1000
Flags: W
HStem: 404 134<602.399 806.049> 544 134<267.951 471.601>
VStem: 80 139<452.462 495.326> 855 139<586.674 629.538>
LayerCount: 4
Back
Fore
SplineSet
356 678 m 4
 530 678 609 538 718 538 c 4
 779 538 832 591 855 669 c 5
 994 625 l 5
 959 506 860 404 718 404 c 4
 544 404 465 544 356 544 c 4
 295 544 242 491 219 413 c 5
 80 457 l 5
 115 576 214 678 356 678 c 4
EndSplineSet
Layer: 2
Layer: 3
EndChar
StartChar: exclamdown
Encoding: 346 161 90
GlifName: exclamdown
Width: 420
Flags: W
HStem: 798 220<119.109 300.891>
VStem: 100 220<817.109 998.891> 132 156<-414 444.902>
LayerCount: 4
Back
Fore
SplineSet
210 798 m 4xc0
 145 798 100 843 100 908 c 4
 100 973 145 1018 210 1018 c 4
 275 1018 320 973 320 908 c 4
 320 843 275 798 210 798 c 4xc0
132 -414 m 5xa0
 132 -49 l 6
 132 192 152 614 152 614 c 5
 268 614 l 5
 268 614 288 190 288 -49 c 6
 288 -414 l 5
 132 -414 l 5xa0
EndSplineSet
Layer: 2
Layer: 3
EndChar
StartChar: sterling
Encoding: 369 163 113
GlifName: sterling
Width: 974
VWidth: 0
Flags: W
HStem: 0 140<297 888> 598 124<100 221 394 784> 1295 140<391.133 681.756>
VStem: 153 156<833.931 1211.14> 240 156<292.602 598>
LayerCount: 4
Back
Fore
SplineSet
531 1435 m 0xf0
 657 1435 761 1383 828 1322 c 1
 730 1214 l 1
 680 1260 613 1295 531 1295 c 0
 399 1295 309 1207 309 1064 c 0xf0
 309 959 354 855 379 722 c 1
 784 722 l 1
 784 598 l 1
 394 598 l 1
 396 581 396 564 396 546 c 0
 396 405 360 262 297 140 c 1
 888 140 l 1
 888 0 l 1
 100 0 l 1
 100 107 l 1
 190 232 240 390 240 546 c 0xe8
 240 564 240 581 238 598 c 1
 100 598 l 1
 100 722 l 1
 221 722 l 1
 195 843 153 936 153 1064 c 0
 153 1291 322 1435 531 1435 c 0xf0
EndSplineSet
Layer: 2
Layer: 3
EndChar
StartChar: brokenbar
Encoding: 597 166 341
GlifName: brokenbar
Width: 452
VWidth: 0
Flags: W
VStem: 156 140<-456 394 698 1538>
LayerCount: 4
Back
Fore
SplineSet
156 1538 m 1
 296 1538 l 1
 296 698 l 1
 156 698 l 1
 156 1538 l 1
156 394 m 1
 296 394 l 1
 296 -456 l 1
 156 -456 l 1
 156 394 l 1
EndSplineSet
Layer: 2
Layer: 3
EndChar
StartChar: section
Encoding: 370 167 114
GlifName: section
Width: 961
VWidth: 0
Flags: W
HStem: -74 134<254.083 630.758> 1356 134<332.412 663.867>
VStem: 110 150<625.853 862.006> 132 150<1094.62 1304.66> 682 150<595.864 843.637> 706 150<130.099 358.574>
LayerCount: 4
Back
Fore
SplineSet
471 1490 m 0xd0
 602 1490 718 1444 802 1393 c 1
 730 1275 l 1
 668 1316 574 1356 471 1356 c 0
 364 1356 282 1300 282 1198 c 0
 282 1091 368 1056 467 1043 c 0
 548 1032 622 1021 686 983 c 0
 766 936 832 846 832 728 c 0xd8
 832 639 790 553 701 497 c 1
 794 448 856 360 856 247 c 0
 856 38 666 -74 471 -74 c 0
 313 -74 183 -20 85 38 c 1
 155 156 l 1
 236 104 345 60 471 60 c 0
 596 60 706 120 706 247 c 0
 706 309 674 356 634 382 c 0
 597 406 544 417 480 425 c 0
 415 433 335 441 260 484 c 0
 180 530 110 618 110 736 c 0
 110 848 177 929 260 974 c 1xe4
 170 1031 132 1115 132 1198 c 0
 132 1375 284 1490 471 1490 c 0xd0
580 545 m 1
 632 574 682 641 682 728 c 0
 682 802 640.501953125 851.67578125 597 875 c 0
 531.809570312 909.953125 444 903 374 922 c 1
 317 891 260 828 260 736 c 0xe8
 260 670 298.01953125 621.03515625 342 596 c 0
 407 559 504 562 580 545 c 1
EndSplineSet
Layer: 2
Layer: 3
EndChar
StartChar: ordfeminine
Encoding: 665 170 409
GlifName: ordfeminine
Width: 749
Flags: W
HStem: 777 118<239.948 452.347> 1144 108<240.221 497> 1437 118<170.832 466.411>
VStem: 80 132<921.869 1117.64> 497 132<790 870.318 937.141 1144 1252 1407.28>
LayerCount: 4
Back
Fore
SplineSet
212 1018 m 0
 212 940 265 895 341 895 c 0
 395 895 438.649414062 915.77734375 462 949 c 0
 497 996 497 1053 497 1144 c 1
 418 1144 l 2
 321 1144 284.0859375 1141.90136719 252 1114 c 0
 229 1094 212 1060 212 1018 c 0
497 1252 m 1
 497 1309 497 1359 466 1395 c 0
 441.936523438 1422.9453125 404 1437 354 1437 c 0
 288.294921875 1437 234 1416 184 1391 c 1
 132 1499 l 1
 192.368164062 1529.37304688 267.341796875 1555 354 1555 c 0
 451 1555 528.666015625 1520.20898438 573 1464 c 0
 629 1393 629 1323 629 1235 c 2
 629 790 l 1
 497 790 l 1
 497 870.318359375 l 1
 450.204101562 803.5078125 391.8984375 777 326 777 c 0
 191.21875 777 80 871 80 1018 c 0
 80 1093 111.655273438 1151.41210938 157 1189 c 0
 233 1252 308 1252 418 1252 c 2
 497 1252 l 1
EndSplineSet
Layer: 2
Layer: 3
EndChar
StartChar: guillemotleft
Encoding: 384 171 128
GlifName: guillemotleft
Width: 902
Flags: W
LayerCount: 4
Back
Fore
SplineSet
684 939 m 1
 802 867 l 1
 592 539 l 1
 802 211 l 1
 684 139 l 1
 440 539 l 1
 684 939 l 1
352 955 m 5
 470 883 l 5
 252 539 l 5
 470 195 l 5
 352 123 l 5
 100 539 l 5
 352 955 l 5
EndSplineSet
Layer: 2
Layer: 3
EndChar
StartChar: logicalnot
Encoding: 644 172 388
GlifName: logicalnot
Width: 900
Flags: W
HStem: 474 134<100 650>
VStem: 650 150<200 474>
LayerCount: 4
Back
Fore
SplineSet
100 608 m 1
 800 608 l 1
 800 200 l 1
 650 200 l 1
 650 474 l 1
 100 474 l 1
 100 608 l 1
EndSplineSet
Layer: 2
Layer: 3
EndChar
StartChar: registered
Encoding: 330 174 74
GlifName: registered
Width: 1524
VWidth: 0
Flags: W
HStem: -32 100<501.377 1022.62> 579 134<638 774> 1026 134<638 875.165> 1348 100<501.377 1022.62>
VStem: 116 112<342.459 1073.54> 488 150<258 579 713 1026> 916 150<753.33 985.589> 1296 112<342.459 1073.54>
LayerCount: 4
Back
Fore
SplineSet
762 1448 m 4
 1007 1448 1189 1370 1295 1223 c 4
 1407 1068 1408 860 1408 708 c 4
 1408 556 1407 348 1295 193 c 4
 1189 46 1007 -32 762 -32 c 4
 517 -32 335 46 229 193 c 4
 117 348 116 556 116 708 c 4
 116 860 117 1068 229 1223 c 4
 335 1370 517 1448 762 1448 c 4
762 1348 m 4
 556 1348 411 1288 323 1169 c 4
 232 1047 228 856 228 708 c 4
 228 560 232 369 323 247 c 4
 411 128 556 68 762 68 c 4
 968 68 1113 128 1201 247 c 4
 1292 369 1296 560 1296 708 c 4
 1296 856 1292 1047 1201 1169 c 4
 1113 1288 968 1348 762 1348 c 4
638 713 m 5
 676 713 l 6
 763 713 816 713 859 743 c 4
 894 768 916 815 916 869 c 4
 916 924 894 971 859 996 c 4
 821 1023 775 1026 676 1026 c 6
 638 1026 l 5
 638 713 l 5
488 1160 m 5
 676 1160 l 6
 777 1160 867 1160 953 1100 c 4
 1021 1052 1066 970 1066 869 c 4
 1066 760 1012 662 915 618 c 5
 1083 258 l 5
 921 258 l 5
 774 579 l 5
 638 579 l 5
 638 258 l 5
 488 258 l 5
 488 1160 l 5
EndSplineSet
Layer: 2
Layer: 3
EndChar
StartChar: macron
Encoding: 450 175 194
GlifName: macron
Width: 770
Flags: W
HStem: 1252 134<100 670>
VStem: 100 570<1252 1386>
AnchorPoint: "Top" 385 1082 mark 0
LayerCount: 4
Back
Fore
SplineSet
100 1386 m 1
 670 1386 l 1
 670 1252 l 1
 100 1252 l 1
 100 1386 l 1
EndSplineSet
Layer: 2
Layer: 3
EndChar
StartChar: degree
Encoding: 406 176 150
GlifName: degree
Width: 652
VWidth: 0
Flags: W
HStem: 993 118<239.896 412.104> 1393 118<239.896 412.104>
VStem: 80 132<1135.56 1368.44> 440 132<1135.56 1368.44>
LayerCount: 4
Back
Fore
SplineSet
326 1393 m 4
 266.424804688 1393 212 1349.62109375 212 1252 c 4
 212 1154.37890625 266.424804688 1111 326 1111 c 4
 385.576171875 1111 440 1154.37890625 440 1252 c 4
 440 1349.62011719 385.575195312 1393 326 1393 c 4
326 1511 m 4
 478.487304688 1511 572 1390.39453125 572 1252 c 4
 572 1113.60449219 478.486328125 993 326 993 c 4
 173.512695312 993 80 1113.60449219 80 1252 c 4
 80 1390.39453125 173.512695312 1511 326 1511 c 4
EndSplineSet
Layer: 2
Layer: 3
EndChar
StartChar: acute
Encoding: 424 180 168
GlifName: acute
Width: 523
Flags: W
HStem: 1222 274<254 258>
VStem: 100 323
AnchorPoint: "Top" 193 1082 mark 0
LayerCount: 4
Back
Fore
SplineSet
423 1496 m 5
 258 1222 l 5
 100 1222 l 5
 254 1496 l 5
 423 1496 l 5
EndSplineSet
Layer: 2
Layer: 3
EndChar
StartChar: paragraph
Encoding: 642 182 386
GlifName: paragraph
Width: 1094
VWidth: 0
Flags: W
HStem: 0 21G<424 580 786 942> 1276 140<586.097 786>
VStem: 96 484<763.379 1169.01> 424 156<0 548.8> 786 156<0 1276>
LayerCount: 4
Back
Fore
SplineSet
786 1276 m 5xe8
 580 1276 l 5
 580 0 l 5
 424 0 l 5
 424 535.862304688 l 5xd8
 344.133789062 555.140625 266.016601562 593.1328125 201 668 c 4
 128.02734375 753.883789062 96 862 96 966 c 4
 96 1070 127 1179 201 1264 c 4
 333.1875 1415.83691406 519 1416 664 1416 c 6
 942 1416 l 5
 942 0 l 5
 786 0 l 5
 786 1276 l 5xe8
EndSplineSet
Layer: 2
Layer: 3
EndChar
StartChar: multiply
Encoding: 602 215 346
GlifName: multiply
Width: 970
Flags: W
LayerCount: 4
Back
Fore
SplineSet
850 269 m 5
 757 176 l 5
 485 448 l 5
 213 176 l 5
 120 269 l 5
 392 541 l 5
 120 813 l 5
 213 906 l 5
 485 634 l 5
 757 906 l 5
 850 813 l 5
 578 541 l 5
 850 269 l 5
EndSplineSet
Layer: 2
Layer: 3
EndChar
StartChar: Oslash
Encoding: 298 216 42
GlifName: O_slash
Width: 1228
VWidth: 0
Flags: W
HStem: -19 140<437.157 789.055> 1295 140<438.945 790.843>
VStem: 116 156<334.475 1104.26> 956 156<311.742 1081.97>
LayerCount: 4
Back
Fore
SplineSet
614 1295 m 0
 469 1295 373 1229 326 1127 c 0
 273 1012 272 850 272 708 c 0
 272 582 273 441 310 330 c 1
 838 1216 l 1
 785 1265 710 1295 614 1295 c 0
208 -105 m 1
 92 -35 l 1
 217 175 l 1
 119.04849211 314.929126916 116 533.11784139 116 708 c 0
 116 856 116 1038 182 1180 c 0
 251 1329 398 1435 614 1435 c 0
 737 1435 837 1401 914 1344 c 1
 1020 1521 l 1
 1136 1451 l 1
 1011 1241 l 1
 1108.95150789 1103.07087308 1112 882.88215861 1112 708 c 0
 1112 560 1112 378 1046 236 c 0
 977 87 830 -19 614 -19 c 0
 491 -19 391 15 314 72 c 1
 208 -105 l 1
390 200 m 1
 443 151 518 121 614 121 c 0
 759 121 855 187 902 289 c 0
 955 404 956 566 956 708 c 0
 956 834 955 975 918 1086 c 1
 390 200 l 1
EndSplineSet
Layer: 2
Layer: 3
EndChar
StartChar: Thorn
Encoding: 603 222 347
GlifName: T_horn
Width: 1098
Flags: W
HStem: 0 21G<156 312> 306 140<312 708.238> 1066 140<312 708.238>
VStem: 156 156<0 306 446 1066 1206 1416> 846 156<585.699 926.301>
LayerCount: 4
Back
Fore
SplineSet
434 446 m 2
 575 446 688 447 773 544 c 0
 820 598 846 677 846 756 c 0
 846 835 820 914 773 968 c 0
 688 1065 575 1066 434 1066 c 2
 312 1066 l 1
 312 446 l 1
 434 446 l 2
312 1206 m 1
 434 1206 l 2
 579 1206 765 1206 897 1054 c 0
 971 969 1002 860 1002 756 c 0
 1002 652 971 543 897 458 c 0
 765 306 579 306 434 306 c 2
 312 306 l 1
 312 0 l 1
 156 0 l 1
 156 1416 l 1
 312 1416 l 1
 312 1206 l 1
EndSplineSet
Layer: 2
Layer: 3
EndChar
StartChar: yacute
Encoding: 253 253 203
GlifName: yacute
Width: 947
VWidth: 0
Flags: W
HStem: -427 134<73.4958 333.461>
LayerCount: 4
Back
Fore
SplineSet
548 -105 m 6
 503 -254 475 -308 421 -355 c 4
 360 -407 281 -427 208 -427 c 4
 151 -427 95 -416 45 -399 c 5
 81 -269 l 5
 123 -284 167 -293 208 -293 c 4
 254 -293 298 -279 328 -254 c 4
 363 -224 375 -197 433 -2 c 5
 40 1082 l 5
 197 1082 l 5
 500 194 l 5
 752 1082 l 5
 907 1082 l 5
 548 -105 l 6
706 1496 m 5
 541 1222 l 5
 383 1222 l 5
 537 1496 l 5
 706 1496 l 5
EndSplineSet
Layer: 2
Layer: 3
EndChar
StartChar: ydieresis
Encoding: 255 255 131
GlifName: ydieresis
Width: 947
VWidth: 0
Flags: HW
HStem: 1247 188<201.891 364.109 583.891 746.109>
VStem: 189 188<1259.89 1422.11> 571 188<1259.89 1422.11>
LayerCount: 2
Back
Fore
SplineSet
548 -105 m 6
 503 -254 475 -308 421 -355 c 4
 360 -407 281 -427 208 -427 c 4
 151 -427 95 -416 45 -399 c 5
 81 -269 l 5
 123 -284 167 -293 208 -293 c 4
 254 -293 298 -279 328 -254 c 4
 363 -224 375 -197 433 -2 c 5
 40 1082 l 5
 197 1082 l 5
 500 194 l 5
 752 1082 l 5
 907 1082 l 5
 548 -105 l 6
665 1435 m 0
 720 1435 759 1396 759 1341 c 0
 759 1286 720 1247 665 1247 c 0
 610 1247 571 1286 571 1341 c 0
 571 1396 610 1435 665 1435 c 0
283 1435 m 0
 338 1435 377 1396 377 1341 c 0
 377 1286 338 1247 283 1247 c 0
 228 1247 189 1286 189 1341 c 0
 189 1396 228 1435 283 1435 c 0
EndSplineSet
EndChar
StartChar: dcroat
Encoding: 612 273 356
GlifName: dcroat
Width: 1150
Flags: W
HStem: -16 134<365.543 663.873> 0 21G<780 930> 964 134<365.326 663.885> 1236 124<538 1070>
VStem: 100 150<242.001 839.569> 780 150<0 117 241.242 840.758 967 1496>
LayerCount: 4
Back
Fore
SplineSet
1070 1360 m 1x3c
 1070 1236 l 1
 538 1236 l 1
 538 1360 l 1
 1070 1360 l 1x3c
EndSplineSet
Refer: 48 100 S 1 0 0 1 0 0 2
Layer: 2
Layer: 3
EndChar
StartChar: eogonek
Encoding: 610 281 354
GlifName: eogonek
Width: 1000
VWidth: 0
UnlinkRmOvrlpSave: 1
Flags: W
HStem: -374 124<651.383 817.709> -16 134<362.746 598.144> 509 124<251 760> 964 134<360.323 648.125>
VStem: 100 150<236.828 509 633 842.344> 517 124<-238.992 -53.7832> 760 150<633 846.285>
LayerCount: 4
Back
Fore
SplineSet
760 633 m 5
 759 691 754 757 731 814 c 4
 695 904 611 964 505 964 c 4
 394 964 314 902 280 815 c 4
 259 761 252 698 251 633 c 5
 760 633 l 5
868 67 m 5
 766 25 641 -46 641 -162 c 4
 641 -209 675 -250 722 -250 c 4
 753 -250 777 -235 798 -223 c 5
 861 -335 l 5
 818 -359 770 -374 721 -374 c 4
 610 -374 517 -288 517 -178 c 4
 517 -110 551 -56 601 -12 c 5
 576 -15 550 -16 525 -16 c 4
 365 -16 246 50 179 147 c 4
 100 261 100 400 100 541 c 4
 100 660 100 759 137 856 c 4
 192 1001 331 1098 505 1098 c 4
 677 1098 817 1000 874 855 c 4
 910 763 910 681 910 542 c 6
 910 509 l 5
 250 509 l 5
 250 411 251 296 307 217 c 4
 351 154 424 118 525 118 c 4
 627 118 729 152 811 191 c 5
 868 67 l 5
EndSplineSet
Layer: 2
Layer: 3
EndChar
StartChar: gdotaccent
Encoding: 487 289 231
GlifName: gdotaccent
Width: 1036
VWidth: 0
Flags: W
HStem: -427 134<301.238 748.786> -37 134<342.895 747.958> 254 134<358.799 640.187> 964 134<359.813 640.156> 964 118<501.567 640.624 796 946> 1247 188<418.891 581.109>
VStem: 115 150<-252.315 -76.399 494.425 857.836> 170 150<123.29 281.584> 406 188<1259.89 1422.11> 725 150<477.414 874.515> 785 150<-252.32 -77.7478>
LayerCount: 4
Back
Fore
SplineSet
525 -37 m 0xe6a0
 419 -37 265 -38 265 -165 c 0
 265 -292 419 -293 525 -293 c 0
 631 -293 785 -292 785 -165 c 0
 785 -38 631 -37 525 -37 c 0xe6a0
500 1098 m 0xf580
 533.39453125 1098 568.549804688 1095 608 1082 c 1
 946 1082 l 1
 946 958 l 1
 796 958 l 1
 856.581054688 885 875 790 875 676 c 0
 875 552 851.709960938 453.243164062 788 377 c 0
 727 304 625 254 500 254 c 0
 450 254 398 261.592773438 349 283 c 1
 332 265.552734375 320 235.7890625 320 205 c 0xedc0
 320 97.10546875 444.983398438 97 505 97 c 0
 590.911132812 97 648.45703125 99.55859375 728 78 c 0
 835 49 935 -30 935 -165 c 0
 935 -300 835.286132812 -380.076171875 728 -408 c 0
 655 -427 585 -427 525 -427 c 0
 465 -427 394 -427 322 -408 c 0
 215 -380 115 -300 115 -165 c 0xeea0
 115 -62.173828125 178.405273438 15.4375 252 50 c 1
 198.73828125 77.00390625 170 145.239257812 170 205 c 0
 170 255.280273438 187.819335938 315.465820312 240 350 c 1
 155.37890625 428.405273438 125 536.727539062 125 676 c 0
 125 800 148.290039062 898.756835938 212 975 c 0
 273 1048 375 1098 500 1098 c 0xf580
500 964 m 0xf4c0
 332 964 275 846 275 676 c 0
 275 506 332 388 500 388 c 0
 668 388 725 506 725 676 c 0
 725 846 668 964 500 964 c 0xf4c0
500 1435 m 0
 555 1435 594 1396 594 1341 c 0
 594 1286 555 1247 500 1247 c 0
 445 1247 406 1286 406 1341 c 0
 406 1396 445 1435 500 1435 c 0
EndSplineSet
Layer: 2
Layer: 3
EndChar
StartChar: uni0123
Encoding: 613 291 357
GlifName: uni0123
Width: 1036
VWidth: 0
Flags: W
HStem: -427 134<301.238 748.786> -37 134<342.895 747.958> 254 134<358.799 640.187> 964 134<359.813 640.156> 964 118<501.567 640.624 796 946>
VStem: 115 150<-252.315 -76.399 494.425 857.836> 170 150<123.29 281.584> 403 193<1220.34 1380.74> 725 150<477.414 874.515> 785 150<-252.32 -77.7478>
LayerCount: 4
Back
Fore
SplineSet
525 -37 m 0xe540
 419 -37 265 -38 265 -165 c 0
 265 -292 419 -293 525 -293 c 0
 631 -293 785 -292 785 -165 c 0
 785 -38 631 -37 525 -37 c 0xe540
500 1098 m 0xf3
 533.39453125 1098 568.549804688 1095 608 1082 c 1
 946 1082 l 1
 946 958 l 1
 796 958 l 1
 856.581054688 885 875 790 875 676 c 0
 875 552 851.709960938 453.243164062 788 377 c 0
 727 304 625 254 500 254 c 0
 450 254 398 261.592773438 349 283 c 1
 332 265.552734375 320 235.7890625 320 205 c 0xeb80
 320 97.10546875 444.983398438 97 505 97 c 0
 590.911132812 97 648.45703125 99.55859375 728 78 c 0
 835 49 935 -30 935 -165 c 0
 935 -300 835.286132812 -380.076171875 728 -408 c 0
 655 -427 585 -427 525 -427 c 0
 465 -427 394 -427 322 -408 c 0
 215 -380 115 -300 115 -165 c 0xed40
 115 -62.173828125 178.405273438 15.4375 252 50 c 1
 198.73828125 77.00390625 170 145.239257812 170 205 c 0
 170 255.280273438 187.819335938 315.465820312 240 350 c 1
 155.37890625 428.405273438 125 536.727539062 125 676 c 0
 125 800 148.290039062 898.756835938 212 975 c 0
 273 1048 375 1098 500 1098 c 0xf3
500 964 m 0xf180
 332 964 275 846 275 676 c 0
 275 506 332 388 500 388 c 0
 668 388 725 506 725 676 c 0
 725 846 668 964 500 964 c 0xf180
403 1301 m 0
 403 1330 416 1359 428 1383 c 2
 500 1536 l 1
 592 1536 l 1
 539 1387 l 0
 572 1375 596 1344 596 1301 c 0
 596 1246 553 1206 500 1206 c 0
 447 1206 403 1246 403 1301 c 0
EndSplineSet
Layer: 2
Layer: 3
EndChar
StartChar: hbar
Encoding: 615 295 359
GlifName: hbar
Width: 1130
Flags: W
HStem: 0 21G<220 370 860 1010> 964 134<467.919 766.233> 1236 124<80 612>
VStem: 220 150<0 864.073 970 1496> 860 150<0 867.577>
LayerCount: 4
Back
Fore
SplineSet
80 1360 m 1
 612 1360 l 1
 612 1236 l 1
 80 1236 l 1
 80 1360 l 1
EndSplineSet
Refer: 55 104 N 1 0 0 1 80 0 2
Layer: 2
Layer: 3
EndChar
StartChar: Iogonek
Encoding: 616 302 360
GlifName: I_ogonek
Width: 468
VWidth: 0
UnlinkRmOvrlpSave: 1
Flags: W
HStem: -430 124<120.383 286.709>
VStem: -14 124<-294.992 -112.457> 156 156<-20.9816 1416>
LayerCount: 4
Back
Fore
SplineSet
156 1 m 5
 156 1416 l 5
 312 1416 l 5
 312 0 l 5
 233 -36 110 -114 110 -218 c 4
 110 -265 144 -306 191 -306 c 4
 222 -306 246 -291 267 -279 c 5
 330 -391 l 5
 287 -415 239 -430 190 -430 c 4
 79 -430 -14 -344 -14 -234 c 4
 -14 -124 66 -47 156 1 c 5
EndSplineSet
Layer: 2
Layer: 3
EndChar
StartChar: dotlessi
Encoding: 411 305 155
GlifName: dotlessi
Width: 430
VWidth: 0
Flags: W
HStem: 0 21G<140 290>
VStem: 140 150<0 1082>
AnchorPoint: "Center" -14 0 basechar 0
AnchorPoint: "Apos" -14 0 basechar 0
AnchorPoint: "DoubleTop" -14 0 basechar 0
AnchorPoint: "Bottom" 215 0 basechar 0
AnchorPoint: "Top" 215 1082 basechar 0
LayerCount: 4
Back
Fore
SplineSet
290 0 m 5
 140 0 l 5
 140 1082 l 5
 290 1082 l 5
 290 0 l 5
EndSplineSet
Layer: 2
Layer: 3
EndChar
StartChar: kgreenlandic
Encoding: 637 312 381
GlifName: kgreenlandic
Width: 965
Flags: W
HStem: 0 21G<140 290 720.327 915>
VStem: 140 150<0 287 489 1082>
AnchorPoint: "Bottom" 469 0 basechar 0
AnchorPoint: "Center" -16 0 basechar 0
AnchorPoint: "Top" -16 0 basechar 0
AnchorPoint: "Apos" 0 0 basechar 0
AnchorPoint: "DoubleTop" 0 0 basechar 0
LayerCount: 4
Back
Fore
SplineSet
140 1082 m 5
 290 1082 l 5
 290 489 l 5
 729 1082 l 5
 905 1082 l 5
 504 547 l 5
 915 0 l 5
 735 0 l 5
 410 443 l 5
 290 287 l 5
 290 0 l 5
 140 0 l 5
 140 1082 l 5
EndSplineSet
Layer: 2
Layer: 3
EndChar
StartChar: lacute
Encoding: 503 314 247
GlifName: lacute
Width: 430
VWidth: 0
Flags: HW
HStem: -16 134<316.938 385>
VStem: 140 150<138.078 1496>
LayerCount: 4
Back
Fore
SplineSet
140 1496 m 1
 290 1496 l 1
 290 223 l 2
 290 172 294 155 312 137 c 0
 328 121 349 117 364 117 c 0
 374 117 383 119 383 119 c 1
 408 -6 l 1
 386 -14 365 -16 345 -16 c 0
 269 -16 206.240234375 13.1494140625 169 73 c 0
 141 118 140 158 140 217 c 2
 140 1496 l 1
447 1870 m 5
 282 1596 l 5
 124 1596 l 5
 278 1870 l 5
 447 1870 l 5
EndSplineSet
Layer: 2
Layer: 3
EndChar
StartChar: uni013C
Encoding: 505 316 249
GlifName: uni013C_
Width: 430
VWidth: 0
Flags: HW
HStem: -16 134<316.938 385>
VStem: 120 193<-299.736 -139.338> 140 150<138.078 1496>
LayerCount: 4
Back
Fore
SplineSet
385 118 m 1xa0
 385 -16 l 1
 339 -16 297 -15 244 12 c 0
 214 27 185 55 167 85 c 0
 140 130 140 176 140 229 c 2
 140 1496 l 1
 290 1496 l 1
 290 249 l 2
 290 183 290 160 316 137 c 0
 336 119 356 118 385 118 c 1xa0
313 -220 m 0xc0
 313 -249 300 -278 288 -302 c 2
 216 -455 l 1
 124 -455 l 1
 177 -306 l 0
 144 -294 120 -263 120 -220 c 0
 120 -165 163 -125 216 -125 c 0
 269 -125 313 -165 313 -220 c 0xc0
EndSplineSet
Layer: 2
Layer: 3
EndChar
StartChar: Lslash
Encoding: 618 321 362
GlifName: L_slash
Width: 1109
VWidth: 0
Flags: W
HStem: 0 140<389 953>
VStem: 233 156<140 1416>
LayerCount: 4
Back
Fore
SplineSet
545 998 m 5
 621 890 l 5
 121 542 l 5
 45 650 l 5
 545 998 l 5
EndSplineSet
Refer: 23 76 N 1 0 0 1 77 0 2
Layer: 2
Layer: 3
EndChar
StartChar: lslash
Encoding: 322 322 363
GlifName: lslash
Width: 656
VWidth: 0
Flags: W
HStem: -16 134<429.938 498>
VStem: 253 150<138.078 1496>
LayerCount: 2
Back
Fore
SplineSet
498 118 m 1
 498 -16 l 1
 452 -16 410 -15 357 12 c 0
 327 27 298 55 280 85 c 0
 253 130 253 176 253 229 c 2
 253 1496 l 1
 403 1496 l 1
 403 249 l 2
 403 183 403 160 429 137 c 0
 449 119 469 118 498 118 c 1
117 542 m 1
 45 646 l 1
 539 990 l 1
 611 886 l 1
 117 542 l 1
EndSplineSet
EndChar
StartChar: Eng
Encoding: 621 330 365
GlifName: E_ng
Width: 1246
VWidth: 0
Flags: W
HStem: -433 140<752.668 918.774> 0 21G<156 312>
VStem: 156 156<0 1136> 934 156<-253.824 -2 280 1416>
LayerCount: 4
Back
Fore
SplineSet
934 1416 m 1
 1090 1416 l 1
 1090 -121 l 2
 1090 -223 1085 -268 1056 -319 c 0
 1015.0444431 -391.025289719 938 -433 837 -433 c 0
 796.627906977 -433 754.333333333 -424.666666667 713 -408 c 1
 764 -277 l 1
 787.470588235 -286.6 814.294117647 -293 840 -293 c 0
 873 -293 902.108825979 -281.485290035 918 -255 c 0
 933 -230 934 -199 934 -121 c 2
 934 -2 l 1
 312 1136 l 1
 312 0 l 1
 156 0 l 1
 156 1416 l 1
 313 1416 l 1
 934 280 l 1
 934 1416 l 1
EndSplineSet
Layer: 2
Layer: 3
EndChar
StartChar: eng
Encoding: 622 331 366
GlifName: eng
Width: 1050
Flags: W
HStem: -430 136<597.357 763.225> 0 21G<140 290> 964 134<387.919 686.233>
VStem: 140 150<0 864.073 970 1082> 780 150<-255.726 867.577>
LayerCount: 4
Back
Fore
SplineSet
555 1098 m 4
 693 1098 800 1036 861 948 c 4
 930 844 930 731 930 586 c 6
 930 -120 l 6
 930 -206 930 -260 896 -318 c 4
 857 -385 782 -430 685 -430 c 4
 637 -430 597 -420 558 -405 c 5
 608 -278 l 5
 630 -286 659 -294 685 -294 c 4
 721 -294 746 -281 762 -257 c 4
 780 -230 780 -192 780 -120 c 6
 780 586 l 6
 780 722 780 806 732 874 c 4
 693 929 623 964 535 964 c 4
 448 964 380 928 341 874 c 4
 290 804 290 722 290 586 c 6
 290 0 l 5
 140 0 l 5
 140 1082 l 5
 290 1082 l 5
 290 970 l 5
 358 1053 448 1098 555 1098 c 4
EndSplineSet
Layer: 2
Layer: 3
EndChar
StartChar: oe
Encoding: 357 339 101
GlifName: oe
Width: 1670
Flags: W
HStem: -16 134<367.113 665.357 1046.61 1374.74> 509 124<931 1420> 964 134<367.113 662.907 1038.21 1310.15>
VStem: 100 150<241.383 840.617> 780 150<243.515 509 633 839.872> 1420 150<633 843.485>
LayerCount: 4
Back
Fore
SplineSet
515 1098 m 0
 672.580078125 1098 784.202148438 1022.75976562 854.379882812 915.684570312 c 1
 921.592773438 1032.61621094 1042.55859375 1098 1173 1098 c 0
 1324 1098 1443 1016 1503 917 c 0
 1561 823 1570 716 1570 579 c 2
 1570 509 l 1
 930 509 l 1
 930 395 940 293 985 223 c 0
 1026 159 1101 118 1195 118 c 0
 1299 118 1398 165 1463 216 c 1
 1546 105 l 1
 1457 39 1334 -16 1195 -16 c 0
 1041.44238281 -16 918.310546875 56.62890625 852.830078125 163.966796875 c 1
 782.440429688 58.095703125 671.471679688 -16 515 -16 c 0
 368 -16 249.294921875 51.498046875 184 144 c 0
 100 263 100 399 100 541 c 0
 100 683 100 819 184 938 c 0
 249.294921875 1030.50195312 368 1098 515 1098 c 0
515 964 m 0
 422 964 351.284179688 923.797851562 310 866 c 0
 250 782 250 662 250 541 c 0
 250 420 250 300 310 216 c 0
 351.284179688 158.202148438 422 118 515 118 c 0
 608 118 678.715820312 158.202148438 720 216 c 0
 780 300 780 420 780 541 c 0
 780 662 780 782 720 866 c 0
 678.715820312 923.797851562 608 964 515 964 c 0
931 633 m 1
 1420 633 l 1
 1419 718 1405 804 1366 860 c 0
 1324 920 1262 964 1173 964 c 0
 1083 964 1020 917 983 860 c 0
 945 801 934 720 931 633 c 1
EndSplineSet
Layer: 2
Layer: 3
EndChar
StartChar: uogonek
Encoding: 371 371 370
GlifName: uogonek
Width: 1050
VWidth: 0
UnlinkRmOvrlpSave: 1
Flags: HW
HStem: -430.003 124.002<398.273 564.75> -16 134<363.767 662.081> 0 21G<760 910>
VStem: 120 150<214.423 1082> 264 123.999<-295.237 -112.379> 760 150<0 112 217.927 1082>
LayerCount: 2
Back
Fore
SplineSet
495 -16 m 4xd4
 357 -16 250 46 189 134 c 4
 120 238 120 351 120 496 c 6
 120 1082 l 5
 270 1082 l 5
 270 496 l 6
 270 360 270 276 318 208 c 4
 357 153 427 118 515 118 c 4xd4
 602 118 670 154 709 208 c 4
 760 278 760 360 760 496 c 6
 760 1082 l 5
 910 1082 l 5
 910 0 l 5
 760 0 l 5xb4
 760 112 l 5
 692 29 602 -16 495 -16 c 4xd4
532 41 m 5xa4
 590 0 l 5
 510.672851562 -35.8759765625 387.998046875 -114.635742188 387.998046875 -218.392578125 c 4
 387.998046875 -265.697265625 421.392578125 -306.000976562 468.544921875 -306.000976562 c 4
 499.177734375 -306.000976562 524.19921875 -291.235351562 545 -279 c 5
 608 -391 l 5
 565.162109375 -414.7734375 517.216796875 -430.002929688 467.861328125 -430.002929688 c 4
 356.989257812 -430.002929688 264 -344.657226562 264 -234.216796875 c 4
 264 -84.8857421875 412.420898438 4.3125 532 41 c 5xa4
  Spiro
    666 -351 v
    608 -391 o
    469 -430 o
    264 -234 o
    532 41 o
    758 89 v
    794 53 v
    590 0 o
    388 -219 o
    469 -306 o
    545 -279 o
    596 -248 v
    0 0 z
  EndSpiro
EndSplineSet
EndChar
StartChar: ycircumflex
Encoding: 375 375 199
GlifName: ycircumflex
Width: 947
VWidth: 0
Flags: W
HStem: -427 134<73.4958 333.461>
LayerCount: 4
Back
Fore
SplineSet
548 -105 m 6
 503 -254 475 -308 421 -355 c 4
 360 -407 281 -427 208 -427 c 4
 151 -427 95 -416 45 -399 c 5
 81 -269 l 5
 123 -284 167 -293 208 -293 c 4
 254 -293 298 -279 328 -254 c 4
 363 -224 375 -197 433 -2 c 5
 40 1082 l 5
 197 1082 l 5
 500 194 l 5
 752 1082 l 5
 907 1082 l 5
 548 -105 l 6
614 1222 m 1
 474 1360 l 1
 334 1222 l 1
 163 1222 l 1
 421 1496 l 1
 527 1496 l 1
 785 1222 l 1
 614 1222 l 1
EndSplineSet
Layer: 2
Layer: 3
EndChar
StartChar: longs
Encoding: 726 383 470
GlifName: longs
Width: 608
Flags: W
HStem: 0 21G<120 270> 1378 134<304.58 522.371>
VStem: 120 150<0 1342.82>
LayerCount: 4
Back
Fore
SplineSet
405 1512 m 0
 459 1512 506 1503 552 1489 c 1
 514 1360 l 1
 476 1371 445 1378 405 1378 c 0
 361 1378 321 1360 300 1329 c 0
 270 1284 270 1245 270 1133 c 1
 270 0 l 1
 120 0 l 1
 120 1133 l 0
 120 1256 120 1327 176 1404 c 0
 224 1470 307 1512 405 1512 c 0
EndSplineSet
Layer: 2
Layer: 3
EndChar
StartChar: uni018F
Encoding: 629 399 373
GlifName: uni018F_
Width: 1208
VWidth: 0
Flags: W
HStem: -19 140<431.071 776.929> 602 140<273 934.982> 1295 140<418.006 775.549>
VStem: 116 157<303.884 602> 934.982 157.018<302.828 602 742 1109.25>
LayerCount: 4
Back
Fore
SplineSet
604 1435 m 0
 813 1435 960 1334 1031 1178 c 0
 1088 1053 1092 876 1092 708 c 0
 1092 543 1089 367 1031 238 c 0
 963 86 818 -19 604 -19 c 0
 390 -19 245 85 177 238 c 0
 117 373 116 544 116 742 c 1
 935.931520433 742 l 1
 935.299063685 881.647680478 929.462194183 1025.12942613 886 1125 c 0
 840 1230 749 1295 604 1295 c 0
 480 1295 397 1247 318 1183 c 1
 225 1294 l 1
 316 1371 440 1435 604 1435 c 0
934.982099934 602 m 1
 273 602 l 1
 276 476 286 373 322 291 c 0
 368 186 459 121 604 121 c 0
 749 121 840 186 886 291 c 0
 922.00300043 373.730298859 932.18730201 486.386816839 934.982099934 602 c 1
EndSplineSet
Layer: 2
Layer: 3
EndChar
StartChar: florin
Encoding: 376 402 120
GlifName: florin
Width: 718
Flags: W
HStem: -430 136<47.3566 213.225> 958 124<80 230 380 580> 1378 134<414.58 632.371>
VStem: 230 150<-255.726 958 1082 1342.82>
LayerCount: 4
Back
Fore
SplineSet
515 1512 m 0
 569 1512 616 1503 662 1489 c 1
 624 1360 l 1
 586 1371 555 1378 515 1378 c 0
 471 1378 431 1360 410 1329 c 0
 380 1284 380 1245 380 1133 c 2
 380 1082 l 1
 580 1082 l 1
 580 958 l 1
 380 958 l 1
 380 -120 l 0
 380 -206 380 -260 346 -318 c 0
 307 -385 232 -430 135 -430 c 0
 87 -430 47 -420 8 -405 c 1
 58 -278 l 1
 80 -286 109 -294 135 -294 c 0
 171 -294 196 -281 212 -257 c 0
 230 -230 230 -192 230 -120 c 0
 230 958 l 1
 80 958 l 1
 80 1082 l 1
 230 1082 l 1
 230 1133 l 2
 230 1256 230 1327 286 1404 c 0
 334 1470 417 1512 515 1512 c 0
EndSplineSet
Layer: 2
Layer: 3
EndChar
StartChar: breve
Encoding: 449 728 193
GlifName: breve
Width: 710
VWidth: 0
Flags: W
HStem: 1208 124<266.605 443.395>
VStem: 90 140<1367.93 1496> 480 140<1367.93 1496>
AnchorPoint: "Top" 354 1081 mark 0
LayerCount: 4
Back
Fore
SplineSet
90 1496 m 5
 230 1496 l 5
 230 1381.44628906 292.305664062 1332 355 1332 c 4
 417.694335938 1332 480 1381.44628906 480 1496 c 5
 620 1496 l 5
 620 1343.85644531 522.040039062 1208 355 1208 c 4
 187.959960938 1208 90 1343.85644531 90 1496 c 5
EndSplineSet
Layer: 2
Layer: 3
EndChar
StartChar: dotaccent
Encoding: 451 729 195
GlifName: dotaccent
Width: 388
VWidth: 0
Flags: W
HStem: 1247 188<112.891 275.109>
VStem: 100 188<1259.89 1422.11>
AnchorPoint: "Top" 194 1082 mark 0
LayerCount: 4
Back
Fore
SplineSet
194 1435 m 0
 249 1435 288 1396 288 1341 c 0
 288 1286 249 1247 194 1247 c 0
 139 1247 100 1286 100 1341 c 0
 100 1396 139 1435 194 1435 c 0
EndSplineSet
Layer: 2
Layer: 3
EndChar
StartChar: ogonek
Encoding: 627 731 371
GlifName: ogonek
Width: 544
VWidth: 0
Flags: W
HStem: -430 124<235.59 398.986>
VStem: 100 124<-297.881 -104.82>
AnchorPoint: "Bottom" 351 0 mark 0
LayerCount: 4
Back
Fore
SplineSet
224 -216 m 0
 224 -267 254 -306 305 -306 c 0
 333.236842105 -306 360.5 -292.962962963 379 -281 c 1
 444 -391 l 1
 406 -413 360 -430 305 -430 c 0
 175 -430 100 -340 100 -237 c 0
 100 -81 252 6 374 52 c 1
 426 0 l 1
 343.133188043 -30.4408696985 224 -100.451958965 224 -216 c 0
EndSplineSet
Layer: 2
Layer: 3
EndChar
StartChar: tilde
Encoding: 438 732 182
GlifName: tilde
Width: 818
Flags: W
HStem: 1222 124<429.843 565.411> 1302 124<252.645 387.748>
VStem: 106 606
AnchorPoint: "Top" 409 1080 mark 0
LayerCount: 4
Back
Fore
SplineSet
228 1216 m 5x60
 106 1280 l 5
 142.655813953 1348.27631579 210.023255814 1426 319 1426 c 4x60
 429 1426 458 1346 499 1346 c 4
 541.988764045 1346 569.550561798 1391.15 590 1432 c 5
 712 1368 l 5
 676.344186047 1300.72368421 607.976744186 1222 499 1222 c 4xa0
 388 1222 360 1302 319 1302 c 4
 276.011235955 1302 248.449438202 1256.85 228 1216 c 5x60
EndSplineSet
Layer: 2
Layer: 3
EndChar
StartChar: hungarumlaut
Encoding: 454 733 198
GlifName: hungarumlaut
Width: 810
Flags: W
HStem: 1222 274
VStem: 100 610
AnchorPoint: "Top" 340 1082 mark 0
LayerCount: 4
Back
Fore
SplineSet
710 1496 m 1
 546 1222 l 1
 398 1222 l 1
 551 1496 l 1
 710 1496 l 1
412 1496 m 1
 248 1222 l 1
 100 1222 l 1
 253 1496 l 1
 412 1496 l 1
EndSplineSet
Layer: 2
Layer: 3
EndChar
StartChar: uni0312
Encoding: 657 786 401
GlifName: uni0312
Width: 393
VWidth: 0
Flags: W
HStem: 1206 330<197 234.359>
VStem: 100 193<1220.34 1380.74>
AnchorPoint: "Top" 197 1082 mark 0
LayerCount: 4
Back
Fore
SplineSet
100 1301 m 0
 100 1330 113 1359 125 1383 c 2
 197 1536 l 1
 289 1536 l 1
 236 1387 l 0
 269 1375 293 1344 293 1301 c 0
 293 1246 250 1206 197 1206 c 0
 144 1206 100 1246 100 1301 c 0
EndSplineSet
Layer: 2
Layer: 3
EndChar
StartChar: tonos
Encoding: 710 900 454
GlifName: tonos
Width: 435
Flags: W
HStem: 1222 274<164 238>
VStem: 112 222
AnchorPoint: "Top" 178 1082 mark 0
LayerCount: 4
Back
Fore
SplineSet
334 1496 m 25
 238 1222 l 1
 112 1222 l 1
 164 1496 l 29
 334 1496 l 25
EndSplineSet
Layer: 2
Layer: 3
EndChar
StartChar: uni0394
Encoding: 681 916 425
GlifName: uni0394
Width: 1170
Flags: W
HStem: 0 140<240 930>
LayerCount: 4
Back
Fore
SplineSet
930 140 m 5
 585 1205 l 5
 240 140 l 5
 930 140 l 5
510 1416 m 5
 660 1416 l 5
 1140 0 l 5
 30 0 l 5
 510 1416 l 5
EndSplineSet
Layer: 2
Layer: 3
EndChar
StartChar: Xi
Encoding: 698 926 442
GlifName: X_i
Width: 989
VWidth: 0
Flags: W
HStem: 0 140<126 863> 652 140<167 822> 1276 140<126 863>
AnchorPoint: "DoubleTop" -27 0 basechar 0
AnchorPoint: "Apos" -27 0 basechar 0
AnchorPoint: "Center" -27 0 basechar 0
AnchorPoint: "Bottom" 495 0 basechar 0
AnchorPoint: "Top" 495 1364 basechar 0
LayerCount: 4
Back
Fore
SplineSet
167 792 m 1
 822 792 l 1
 822 652 l 1
 167 652 l 1
 167 792 l 1
126 140 m 5
 863 140 l 5
 863 0 l 1
 126 0 l 1
 126 140 l 5
126 1416 m 1
 863 1416 l 1
 863 1276 l 1
 126 1276 l 1
 126 1416 l 1
EndSplineSet
Layer: 2
Layer: 3
EndChar
StartChar: Pi
Encoding: 695 928 439
GlifName: P_i
Width: 1232
VWidth: 0
Flags: W
HStem: 0 21G<156 312 920 1076> 1276 140<312 920>
VStem: 156 156<0 1276> 920 156<0 1276>
AnchorPoint: "DoubleTop" 0 0 basechar 0
AnchorPoint: "Apos" 0 0 basechar 0
AnchorPoint: "Center" -10 0 basechar 0
AnchorPoint: "Bottom" 604 0 basechar 0
AnchorPoint: "Top" 604 1364 basechar 0
LayerCount: 4
Back
Fore
SplineSet
156 1416 m 5
 1076 1416 l 5
 1076 0 l 5
 920 0 l 5
 920 1276 l 5
 312 1276 l 5
 312 0 l 5
 156 0 l 5
 156 1416 l 5
EndSplineSet
Layer: 2
Layer: 3
EndChar
StartChar: Sigma
Encoding: 692 931 436
GlifName: S_igma
Width: 1062
Flags: W
HStem: 0 140<334 936> 1276 140<334 936>
LayerCount: 4
Back
Fore
SplineSet
612 690 m 5
 334 140 l 5
 936 140 l 5
 936 0 l 5
 156 0 l 5
 156 102 l 5
 475 718 l 5
 156 1314 l 5
 156 1416 l 5
 936 1416 l 5
 936 1276 l 5
 334 1276 l 5
 612 751 l 5
 612 690 l 5
EndSplineSet
Layer: 2
Layer: 3
EndChar
StartChar: Phi
Encoding: 693 934 437
GlifName: P_hi
Width: 1309
VWidth: 0
Flags: W
HStem: 0 21G<580 731> 203 143<408.717 580 731 902.283> 1018 143<408.717 580 731 902.283>
VStem: 113 151<493.699 870.301> 580 151<0 206.752 346 1018 1157.25 1364> 1047 151<493.699 870.301>
CounterMasks: 1 1c
AnchorPoint: "DoubleTop" 14 0 basechar 0
AnchorPoint: "Apos" 14 0 basechar 0
AnchorPoint: "Center" 14 0 basechar 0
AnchorPoint: "Bottom" 629 0 basechar 0
AnchorPoint: "Top" 629 1364 basechar 0
LayerCount: 4
Back
Fore
SplineSet
731 203 m 1
 731 0 l 1
 580 0 l 1
 580 203 l 1
 467 211 371 234 285 297 c 0
 176 377 113 514 113 682 c 0
 113 850 176 987 285 1067 c 0
 371 1130 467 1153 580 1161 c 1
 580 1364 l 1
 731 1364 l 1
 731 1161 l 1
 844 1153 940 1130 1026 1067 c 0
 1135 987 1198 850 1198 682 c 0
 1198 514 1135 377 1026 297 c 0
 940 234 844 211 731 203 c 1
1047 682 m 0
 1047 813 1000 907 928 958 c 0
 871 999 801 1014 731 1018 c 1
 731 346 l 1
 801 350 871 365 928 406 c 0
 1000 457 1047 551 1047 682 c 0
264 682 m 0
 264 551 311 457 383 406 c 0
 440 365 510 350 580 346 c 1
 580 1018 l 1
 510 1014 440 999 383 958 c 0
 311 907 264 813 264 682 c 0
EndSplineSet
Layer: 2
Layer: 3
EndChar
StartChar: alpha
Encoding: 633 945 377
GlifName: alpha
Width: 1070
Flags: W
HStem: -16 134<365.543 663.873> 0 21G<780 930> 964 134<365.326 663.885>
VStem: 100 150<242.001 839.569> 780 150<0 117 241.242 840.758 967 1082>
AnchorPoint: "DoubleTop" 0 0 basechar 0
AnchorPoint: "Center" 0 0 basechar 0
AnchorPoint: "Top" 495 1082 basechar 0
AnchorPoint: "Apos" 999 1366 basechar 0
AnchorPoint: "Bottom" 481 0 basechar 0
LayerCount: 4
Back
Fore
SplineSet
515 964 m 4xb8
 422 964 351 923 310 865 c 4
 251 782 250 664 250 541 c 4
 250 418 251 300 310 217 c 4
 351 159 422 118 515 118 c 4
 608 118 679 159 720 217 c 4
 779 300 780 418 780 541 c 4
 780 664 779 782 720 865 c 4
 679 923 608 964 515 964 c 4xb8
780 1082 m 5
 930 1082 l 5
 930 0 l 5
 780 0 l 5x78
 780 117 l 5
 709 31 623 -16 495 -16 c 4
 351 -16 245 53 180 144 c 4
 100 261 100 408 100 541 c 4
 100 674 103 819 180 938 c 4
 243 1030 351 1098 495 1098 c 4
 622 1098 710 1053 780 967 c 5
 780 1082 l 5
EndSplineSet
Layer: 2
Layer: 3
EndChar
StartChar: beta
Encoding: 634 946 378
GlifName: beta
Width: 1090
Flags: W
HStem: -16 134<363.234 730.13> 715 134<471 673.729> 1328 134<382.4 669.526>
VStem: 140 150<-414 47 176.732 1234.67> 760 150<933.287 1233.55> 840 150<232.76 603.729>
LayerCount: 4
Back
Fore
SplineSet
910 1086 m 0xf8
 910 961 859 863 785 800 c 1
 915 734 990 602 990 420 c 0xf4
 990 159 831 -16 575 -16 c 0
 471 -16 370 8 290 47 c 1
 290 -414 l 5
 140 -414 l 5
 140 1001 l 2
 140 1120 140.356939397 1251.62625267 251 1359 c 0
 324.594661858 1430.42006543 428 1462 526 1462 c 0
 742 1462 910 1312 910 1086 c 0xf8
760 1086 m 0xf8
 760 1231 666 1328 526 1328 c 0
 455 1328 394.326650028 1302.63211315 354 1259 c 0
 293 1193 290 1140 290 1001 c 2
 290 199 l 1
 366 154 470 118 575 118 c 0
 753 118 840 240 840 420 c 0xf4
 840 525.473251029 809.838478701 603.861598588 756 653 c 0
 688.287053062 714.801634216 598.542329295 715 471 715 c 1
 471 849 l 1
 576.649455567 849 630 849 691 906 c 0
 744 955 760 1027 760 1086 c 0xf8
EndSplineSet
Layer: 2
Layer: 3
EndChar
StartChar: gamma
Encoding: 635 947 379
GlifName: gamma
Width: 950
Flags: W
HStem: 0 21G<396.29 553.71>
VStem: 400 150<-414 80>
AnchorPoint: "Top" 475 1082 basechar 0
LayerCount: 4
Back
Fore
SplineSet
400 80 m 1
 550 80 l 1
 550 -414 l 1
 400 -414 l 1
 400 80 l 1
EndSplineSet
Refer: 45 118 N 1 0 0 1 0 0 2
Layer: 2
Layer: 3
EndChar
StartChar: epsilon
Encoding: 709 949 453
GlifName: epsilon
Width: 865
VWidth: 0
Flags: W
HStem: -12 135<313.392 729.449> 434 135<307.281 635> 856 135<314.586 731.717>
VStem: 113 143<173.687 383.229 613.935 806.399>
AnchorPoint: "DoubleTop" 0 0 basechar 0
AnchorPoint: "Apos" 0 0 basechar 0
AnchorPoint: "Center" 0 0 basechar 0
AnchorPoint: "Bottom" 461 0 basechar 0
AnchorPoint: "Top" 461 979 basechar 0
LayerCount: 4
Back
Fore
SplineSet
461 -12 m 0
 361 -12 282 10 221 59 c 0
 153 112 113 191 113 279 c 0
 113 375 162 453 244 500 c 1
 164 543 117 617 117 709 c 0
 117 797 160 875 223 922 c 0
 286 971 365 991 461 991 c 0
 561 991 662 975 758 946 c 1
 723 815 l 1
 637 842 549 856 461 856 c 0
 436 856 370 856 319 821 c 0
 288 801 260 762 260 709 c 0
 260 664 280 625 319 600 c 0
 366 569 436 569 563 569 c 2
 635 569 l 1
 635 434 l 1
 565 434 l 2
 436 434 362 434 309 391 c 0
 272 362 256 320 256 279 c 0
 256 228 280 187 317 160 c 0
 354 133 406 123 461 123 c 0
 551 123 643 141 731 172 c 1
 774 43 l 1
 672 6 563 -12 461 -12 c 0
EndSplineSet
Layer: 2
Layer: 3
EndChar
StartChar: theta
Encoding: 717 952 461
GlifName: theta
Width: 1024
VWidth: 0
Flags: W
HStem: -12 135<363.089 660.911> 616 136<266 758> 1241 135<363.089 660.911>
VStem: 123 143<223.641 616 752 1140.84> 758 143<223.641 616 752 1140.84>
AnchorPoint: "DoubleTop" 0 0 basechar 0
AnchorPoint: "Apos" 0 0 basechar 0
AnchorPoint: "Center" 0 0 basechar 0
AnchorPoint: "Bottom" 532 0 basechar 0
AnchorPoint: "Top" 0 0 basechar 0
LayerCount: 4
Back
Fore
SplineSet
512 1376 m 0
 637 1376 757 1327 829 1223 c 0
 901 1119 901 994 901 834 c 2
 901 530 l 2
 901 309 901 245 829 141 c 0
 757 37 637 -12 512 -12 c 0
 387 -12 267 37 195 141 c 0
 123 245 123 309 123 530 c 2
 123 834 l 2
 123 994 123 1119 195 1223 c 0
 267 1327 387 1376 512 1376 c 0
512 1241 m 0
 430 1241 358 1210 317 1153 c 0
 266 1081 266 986 266 834 c 2
 266 752 l 1
 758 752 l 1
 758 834 l 2
 758 986 758 1081 707 1153 c 0
 666 1210 594 1241 512 1241 c 0
512 123 m 0
 594 123 666 154 707 211 c 0
 758 283 758 317 758 530 c 2
 758 616 l 1
 266 616 l 1
 266 530 l 2
 266 317 266 283 317 211 c 0
 358 154 430 123 512 123 c 0
EndSplineSet
Layer: 2
Layer: 3
EndChar
StartChar: lambda
Encoding: 714 955 458
GlifName: lambda
Width: 982
Flags: W
HStem: 0 21G<61 219.966 763.059 922>
AnchorPoint: "DoubleTop" 0 0 basechar 0
AnchorPoint: "Apos" 0 0 basechar 0
AnchorPoint: "Top" 492 979 basechar 0
AnchorPoint: "Center" -20 0 basechar 0
AnchorPoint: "Bottom" -20 0 basechar 0
LayerCount: 4
Back
Fore
SplineSet
61 0 m 1
 416 979 l 1
 274 1364 l 1
 426 1364 l 1
 922 0 l 1
 770 0 l 1
 492 801 l 1
 213 0 l 1
 61 0 l 1
EndSplineSet
Layer: 2
Layer: 3
EndChar
StartChar: pi
Encoding: 636 960 380
GlifName: pi
Width: 1160
VWidth: 0
Flags: W
HStem: 0 21G<220 370 790 940> 948 134<80 220 370 790 940 1080>
VStem: 220 150<0 948> 790 150<0 948>
LayerCount: 4
Back
Fore
SplineSet
80 1082 m 1
 1080 1082 l 5
 1080 948 l 5
 940 948 l 1
 940 0 l 17
 790 0 l 9
 790 948 l 1
 370 948 l 1
 370 0 l 1
 220 0 l 1
 220 948 l 1
 80 948 l 1
 80 1082 l 1
EndSplineSet
Layer: 2
Layer: 3
EndChar
StartChar: sigma
Encoding: 705 963 449
GlifName: sigma
Width: 1080
Flags: W
HStem: -16 134<365.875 684.125> 948 134<690 1000> 964 134<365.875 684.125>
VStem: 100 150<243.661 838.339> 800 150<243.661 838.339>
LayerCount: 4
Back
Fore
SplineSet
1000 1082 m 5xd8
 1000 948 l 5
 690 948 l 5
 540 1082 l 5
 1000 1082 l 5xd8
EndSplineSet
Refer: 52 111 N 1 0 0 1 0 0 2
Layer: 2
Layer: 3
EndChar
StartChar: tau
Encoding: 718 964 462
GlifName: tau
Width: 896
VWidth: 0
Flags: W
HStem: 948 134<80 373 523 816>
VStem: 373 150<2 948>
LayerCount: 4
Back
Fore
SplineSet
373 2 m 1
 373 948 l 1
 80 948 l 1
 80 1082 l 1
 816 1082 l 1
 816 948 l 1
 523 948 l 1
 523 2 l 1
 373 2 l 1
EndSplineSet
Layer: 2
Layer: 3
EndChar
StartChar: phi
Encoding: 743 966 487
GlifName: phi
Width: 881
Flags: W
HStem: 258 533<150 645>
VStem: 150 495<258 791>
LayerCount: 4
Back
Fore
SplineSet
150 791 m 1
 645 791 l 1
 645 258 l 1
 150 258 l 1
 150 791 l 1
EndSplineSet
Layer: 2
Layer: 3
EndChar
StartChar: Eszett
Encoding: 733 7838 477
GlifName: E_szett
Width: 1314
VWidth: 0
Flags: W
HStem: -19 140<575.878 949.394> 0 21G<156 312> 1276 140<419.741 948>
VStem: 156 156<0 1168.52> 1072 155<240.659 529.425>
LayerCount: 4
Back
Fore
SplineSet
458 64 m 1xb8
 526 190 l 1
 590.27755102 152.846153846 686.693877551 121 780 121 c 0xb8
 947.01171875 121 1072 224 1072 386 c 0
 1072 590.378378378 864.953216374 665.378378378 707 728 c 1
 707 841 l 1
 948 1276 l 1
 664 1276 l 2
 539 1276 453 1274 385 1206 c 0
 317 1138 312 1043 312 916 c 2
 312 0 l 1
 156 0 l 1x78
 156 916 l 2
 156 1080 164 1195 269 1300 c 0
 375 1406 497 1416 664 1416 c 2
 1143 1416 l 1
 1143 1313 l 1
 868 816 l 1
 1045 741 1227 624 1227 392 c 0
 1227 151 1035 -19 780 -19 c 0
 654.765957447 -19 547.106382979 15.3448275862 458 64 c 1xb8
EndSplineSet
Layer: 2
Layer: 3
EndChar
StartChar: ygrave
Encoding: 7923 7923 336
GlifName: ygrave
Width: 947
VWidth: 0
Flags: W
HStem: -427 134<73.4958 333.461>
LayerCount: 4
Back
Fore
SplineSet
548 -105 m 6
 503 -254 475 -308 421 -355 c 4
 360 -407 281 -427 208 -427 c 4
 151 -427 95 -416 45 -399 c 5
 81 -269 l 5
 123 -284 167 -293 208 -293 c 4
 254 -293 298 -279 328 -254 c 4
 363 -224 375 -197 433 -2 c 5
 40 1082 l 5
 197 1082 l 5
 500 194 l 5
 752 1082 l 5
 907 1082 l 5
 548 -105 l 6
240 1496 m 5
 409 1496 l 5
 563 1222 l 5
 405 1222 l 5
 240 1496 l 5
EndSplineSet
Layer: 2
Layer: 3
EndChar
StartChar: uni1EF9
Encoding: 594 7929 338
GlifName: uni1E_F_9
Width: 947
VWidth: 0
Flags: HW
HStem: -427 134<100.725 324.879> 1224 124<494.843 630.411> 1304 124<317.645 452.748>
VStem: 171 606
LayerCount: 4
Back
Fore
SplineSet
74 -409 m 5
 107 -279 l 5
 140 -288 172 -293 202 -293 c 4
 254 -293 293 -278 322 -255 c 4
 363 -223 378 -178 395 -124 c 6
 432 -2 l 5
 40 1082 l 5
 196 1082 l 5
 498 197 l 5
 754 1082 l 5
 907 1082 l 5
 530 -159 l 6
 505 -242 478 -299 424 -347 c 4
 371 -394 298 -427 202 -427 c 4
 156 -427 114 -419 74 -409 c 5
293 1218 m 5xb0
 171 1282 l 5
 207.65625 1350.27636719 275.0234375 1428 384 1428 c 4xb0
 494 1428 523 1348 564 1348 c 4
 606.98828125 1348 634.55078125 1393.15039062 655 1434 c 5
 777 1370 l 5
 741.34375 1302.72363281 672.9765625 1224 564 1224 c 4xd0
 453 1224 425 1304 384 1304 c 4
 341.01171875 1304 313.44921875 1258.84960938 293 1218 c 5xb0
EndSplineSet
Layer: 2
Layer: 3
EndChar
StartChar: emdash
Encoding: 349 8212 93
GlifName: emdash
Width: 2048
Flags: W
HStem: 472 134<100 1948>
LayerCount: 4
Back
Fore
SplineSet
100 472 m 1
 100 606 l 1
 1948 606 l 5
 1948 472 l 5
 100 472 l 1
EndSplineSet
Layer: 2
Layer: 3
EndChar
StartChar: dagger
Encoding: 640 8224 384
GlifName: dagger
Width: 960
VWidth: 0
Flags: W
HStem: 0 21G<405 555> 948 134<80 405 555 880>
VStem: 405 150<0 948 1082 1361>
LayerCount: 4
Back
Fore
SplineSet
80 948 m 1
 80 1082 l 1
 405 1082 l 1
 405 1361 l 5
 555 1361 l 5
 555 1082 l 1
 880 1082 l 1
 880 948 l 1
 555 948 l 1
 555 0 l 1
 405 0 l 1
 405 948 l 1
 80 948 l 1
EndSplineSet
Layer: 2
Layer: 3
EndChar
StartChar: daggerdbl
Encoding: 641 8225 385
GlifName: daggerdbl
Width: 960
VWidth: 0
Flags: W
HStem: -134 134<80 405 555 880> 948 134<80 405 555 880>
VStem: 405 150<-413 -134 0 948 1082 1361>
LayerCount: 4
Back
Fore
SplineSet
80 948 m 1
 80 1082 l 1
 405 1082 l 1
 405 1361 l 1
 555 1361 l 1
 555 1082 l 1
 880 1082 l 1
 880 948 l 1
 555 948 l 1
 555 0 l 1
 880 0 l 1
 880 -134 l 1
 555 -134 l 1
 555 -413 l 1
 405 -413 l 1
 405 -134 l 1
 80 -134 l 1
 80 0 l 1
 405 0 l 1
 405 948 l 1
 80 948 l 1
EndSplineSet
Layer: 2
Layer: 3
EndChar
StartChar: bullet
Encoding: 356 8226 100
GlifName: bullet
Width: 578
VWidth: 0
Flags: W
HStem: 342 340<170.349 407.925>
VStem: 120 338<392.349 631.651>
LayerCount: 4
Back
Fore
SplineSet
290 682 m 0
 388 682 458 612 458 512 c 0
 458 412 388 342 290 342 c 0
 190 342 120 412 120 512 c 0
 120 612 190 682 290 682 c 0
EndSplineSet
Layer: 2
Layer: 3
EndChar
StartChar: ellipsis
Encoding: 365 8230 109
GlifName: ellipsis
Width: 1196
VWidth: 0
Flags: W
HStem: -16 220<139.109 320.891 507.109 688.891 875.109 1056.89>
VStem: 120 220<3.10925 184.891> 488 220<3.10925 184.891> 856 220<3.10925 184.891>
CounterMasks: 1 70
LayerCount: 4
Back
Fore
SplineSet
385 -252 m 1055,36,-1
EndSplineSet
Refer: 1 46 N 1 0 0 1 736 0 2
Refer: 1 46 N 1 0 0 1 368 0 2
Refer: 1 46 N 1 0 0 1 0 0 2
Layer: 2
Layer: 3
EndChar
StartChar: guilsinglleft
Encoding: 443 8249 187
GlifName: guilsinglleft
Width: 570
Flags: W
VStem: 100 370
LayerCount: 4
Back
Fore
SplineSet
352 955 m 5
 470 883 l 5
 252 539 l 5
 470 195 l 5
 352 123 l 5
 100 539 l 5
 352 955 l 5
EndSplineSet
Layer: 2
Layer: 3
EndChar
StartChar: fraction
Encoding: 377 8260 121
GlifName: fraction
Width: 1082
Flags: W
LayerCount: 4
Back
Fore
SplineSet
868 1352 m 5
 982 1280 l 5
 214 64 l 5
 100 136 l 5
 868 1352 l 5
EndSplineSet
Layer: 2
Layer: 3
EndChar
StartChar: Euro
Encoding: 628 8364 372
GlifName: E_uro
Width: 1192
VWidth: 0
Flags: W
HStem: -19 140<531.071 883.842> 518 110<126 216 377 816> 788 110<131 216 377 896> 1295 140<532.451 889.994>
VStem: 216 156<305.855 518 628 788 898 1110.15>
AnchorPoint: "DoubleTop" 41 0 basechar 0
AnchorPoint: "Apos" 41 0 basechar 0
AnchorPoint: "Center" 41 0 basechar 0
AnchorPoint: "Bottom" 635 0 basechar 0
AnchorPoint: "Top" 635 1366 basechar 0
LayerCount: 4
Back
Fore
SplineSet
704 1435 m 0
 868 1435 992 1371 1083 1294 c 1
 990 1183 l 1
 911 1247 828 1295 704 1295 c 0
 559 1295 468 1230 422 1125 c 0
 395 1063 383 983 377 898 c 1
 936 898 l 1
 896 788 l 1
 372 788 l 1
 372 628 l 1
 856 628 l 1
 816 518 l 1
 377 518 l 1
 383 433 395 353 422 291 c 0
 468 186 559 121 704 121 c 0
 848 121 937 186 1018 268 c 1
 1124 166 l 1
 1030 68 898 -19 704 -19 c 0
 490 -19 345 86 277 238 c 0
 241 318 226 416 220 518 c 1
 86 518 l 1
 126 628 l 1
 216 628 l 1
 216 788 l 1
 91 788 l 1
 131 898 l 1
 220 898 l 1
 226 1002 241 1100 277 1178 c 0
 348 1334 495 1435 704 1435 c 0
EndSplineSet
Layer: 2
Layer: 3
EndChar
StartChar: uni20B9
Encoding: 655 8377 399
GlifName: uni20B_9
Width: 1163
VWidth: 0
Flags: W
HStem: 0 21G<611.043 810.908> 566 140<160 219.444 404.332 583.072> 951 130<190 702 860.197 973> 1286 130<190 585.57 741.86 973>
VStem: 709.121 156.837<826.045 951 1081 1166.71>
LayerCount: 4
Back
Fore
SplineSet
741.860351562 1286 m 1
 822.041951357 1230.2975137 844.932586361 1154.16930765 860.591546248 1081 c 1
 1033 1081 l 1
 973 951 l 1
 865.957689938 951 l 1
 858.467583243 869.103043071 829.951077039 786.805177664 773.4453125 719.0546875 c 0
 689.193828354 618.037040991 567.834322628 572.294510785 404.33203125 566.883789062 c 1
 810.90766985 0 l 1
 625.38739584 0 l 1
 219.444335938 566 l 1
 160 566 l 1
 160 706 l 1
 300 706 l 2
 467.860351562 706 542.500147598 712.253288323 615.5546875 770.9453125 c 0
 675.866506202 819.399833275 697.928593995 882.595809645 709.120708682 951 c 1
 130 951 l 1
 190 1081 l 1
 702 1081 l 1
 680 1169 632 1219 568 1251 c 0
 499 1285 424.053710938 1286 300 1286 c 2
 130 1286 l 1
 190 1416 l 1
 1033 1416 l 1
 973 1286 l 1
 741.860351562 1286 l 1
EndSplineSet
Layer: 2
Layer: 3
EndChar
StartChar: trademark
Encoding: 381 8482 125
GlifName: trademark
Width: 1701
VWidth: 0
Flags: W
HStem: 1298 118<86 307 439 661>
VStem: 307 132<662 1298> 788 132<662 1197> 1413 132<662 1197>
LayerCount: 4
Back
Fore
SplineSet
86 1298 m 1
 86 1416 l 1
 661 1416 l 1
 661 1298 l 1
 439 1298 l 1
 439 662 l 1
 307 662 l 1
 307 1298 l 1
 86 1298 l 1
1545 662 m 5
 1413 662 l 5
 1413 1197 l 5
 1225 871 l 5
 1109 871 l 5
 920 1197 l 5
 920 662 l 5
 788 662 l 5
 788 1416 l 5
 923 1416 l 5
 1167 1001 l 5
 1411 1416 l 5
 1545 1416 l 5
 1545 662 l 5
EndSplineSet
Layer: 2
Layer: 3
EndChar
StartChar: arrowleft
Encoding: 667 8592 411
GlifName: arrowleft
Width: 1140
Flags: W
HStem: 474 134<292 1060>
LayerCount: 4
Back
Fore
SplineSet
614 100 m 1
 508 8 l 1
 80 500 l 1
 80 582 l 1
 508 1074 l 1
 614 982 l 1
 292 608 l 1
 1060 608 l 5
 1060 474 l 5
 292 474 l 1
 614 100 l 1
EndSplineSet
Layer: 2
Layer: 3
EndChar
StartChar: arrowup
Encoding: 668 8593 412
GlifName: arrowup
Width: 1186
Flags: W
VStem: 518 150<50 826>
LayerCount: 4
Back
Fore
SplineSet
152 509 m 5
 60 615 l 5
 541 1032 l 5
 645 1032 l 5
 1126 615 l 5
 1034 509 l 5
 668 826 l 5
 668 50 l 5
 518 50 l 5
 518 826 l 5
 152 509 l 5
EndSplineSet
Layer: 2
Layer: 3
EndChar
StartChar: arrowupdn
Encoding: 672 8597 416
GlifName: arrowupdn
Width: 1186
Flags: W
VStem: 518 150<-10 1090>
LayerCount: 4
Back
Fore
SplineSet
1034 307 m 5
 1126 201 l 5
 645 -216 l 5
 541 -216 l 5
 60 201 l 5
 152 307 l 5
 518 -10 l 5
 518 1090 l 5
 152 773 l 5
 60 879 l 5
 541 1296 l 5
 645 1296 l 5
 1126 879 l 5
 1034 773 l 5
 668 1090 l 5
 668 -10 l 5
 1034 307 l 5
EndSplineSet
Layer: 2
Layer: 3
EndChar
StartChar: partialdiff
Encoding: 663 8706 407
GlifName: partialdiff
Width: 1050
VWidth: 0
Flags: W
HStem: -16 134<367.113 662.887> 964 134<365.326 663.873> 1375 134<289.498 661.785>
VStem: 100 150<241.383 839.999> 780 150<242.22 840.758 965 1256.98>
AnchorPoint: "DoubleTop" 0 0 basechar 0
AnchorPoint: "Apos" 0 0 basechar 0
AnchorPoint: "Center" 0 0 basechar 0
AnchorPoint: "Bottom" 481 -379 basechar 0
AnchorPoint: "Top" 471 977 basechar 0
LayerCount: 4
Back
Fore
SplineSet
495 1509 m 4
 656 1509 780 1443 851 1345 c 4
 930 1237 930 1123 930 1002 c 6
 930 541 l 6
 930 399 930 263 846 144 c 4
 780.705078125 51.498046875 662 -16 515 -16 c 4
 368 -16 249.295208118 51.4984551655 184 144 c 4
 100 263 100 399 100 541 c 4
 100 674 100 821 180 938 c 4
 243 1030 351 1098 495 1098 c 4
 623 1098 709 1051 780 965 c 5
 780 1002 l 6
 780 1111 780 1197 726 1271 c 4
 680 1335 601 1375 495 1375 c 4
 398 1375 300 1343 218 1295 c 5
 151 1414 l 5
 252 1473 374 1509 495 1509 c 4
515 964 m 4
 422 964 351 923 310 865 c 4
 251 782 250 664 250 541 c 4
 250 420 250 300 310 216 c 4
 351.284281414 158.20200602 422 118 515 118 c 4
 608 118 678.715820312 158.202148438 720 216 c 4
 780 300 780 420 780 541 c 4
 780 664 779 782 720 865 c 4
 679 923 608 964 515 964 c 4
EndSplineSet
Layer: 2
Layer: 3
EndChar
StartChar: radical
Encoding: 645 8730 389
GlifName: radical
Width: 1082
Flags: W
HStem: 0 21G<425.268 586.896>
LayerCount: 4
Back
Fore
SplineSet
60 552 m 5
 180 634 l 5
 483 183 l 5
 867 1496 l 5
 1022 1496 l 5
 581 0 l 5
 439 0 l 5
 60 552 l 5
EndSplineSet
Layer: 2
Layer: 3
EndChar
StartChar: infinity
Encoding: 372 8734 116
GlifName: infinity
Width: 1476
VWidth: 0
Flags: W
HStem: 165.999 134<328.383 544.205 931.747 1147.69> 782 134<328.847 544.371 931.793 1147.61>
VStem: 100 150<385.134 696.908> 1226 150<385.091 696.865>
LayerCount: 4
Back
Fore
SplineSet
1039.3828125 165.999023438 m 0
 891.730005821 165.999023438 793.719726562 258.471679688 738 373.8359375 c 1
 682.274414062 258.4609375 584.302061315 165.999023438 436.642578125 165.999023438 c 0
 228.93694445 166.124877037 100 348.144344403 100 541 c 0
 100 733.835064004 228.92498243 915.878062495 436.643554688 916 c 0
 584.268565745 916 682.286132812 823.513671875 738 708.1640625 c 1
 793.719726562 823.524414062 891.700180532 916 1039.33203125 916 c 0
 1247.06161486 915.878164467 1376 733.87246359 1376 541 c 0
 1376 348.182415191 1247.07646862 166.125003364 1039.3828125 165.999023438 c 0
659 541 m 1
 625 645 561 782 437 782 c 0
 318 782 250 657.565488024 250 541 c 0
 250 424.671581984 316.058959557 299.999023438 436.71875 299.999023438 c 0
 560.400781359 299.999023438 625 437 659 541 c 1
817 541 m 1
 851 437 915.314167283 299.999023438 1039.30664062 299.999023438 c 0
 1160.20402181 299.999023438 1226 424.409864234 1226 541 c 0
 1226 657.303865358 1159.94500628 782 1039.30761719 782 c 0
 915.593608649 782 851 645 817 541 c 1
EndSplineSet
Layer: 2
Layer: 3
EndChar
StartChar: approxequal
Encoding: 646 8776 390
GlifName: approxequal
Width: 956
Flags: W
HStem: 286 134<467.124 764.988> 356 134<191.012 488.876> 591 134<467.124 764.988> 661 134<191.012 488.876>
LayerCount: 4
Back
Fore
SplineSet
338 356 m 4x40
 274 356 201 317 150 291 c 5
 90 413 l 5
 159 447 247 490 338 490 c 4x40
 457 490 539 420 618 420 c 4
 682 420 755 459 806 485 c 5
 866 363 l 5
 797 329 709 286 618 286 c 4x80
 499 286 417 356 338 356 c 4x40
338 661 m 0x10
 274 661 201 622 150 596 c 1
 90 718 l 1
 159 752 247 795 338 795 c 0x10
 457 795 539 725 618 725 c 0
 682 725 755 764 806 790 c 1
 866 668 l 1
 797 634 709 591 618 591 c 0x20
 499 591 417 661 338 661 c 0x10
EndSplineSet
Layer: 2
Layer: 3
EndChar
StartChar: lessequal
Encoding: 373 8804 117
GlifName: lessequal
Width: 980
Flags: W
HStem: 264 134<140 840>
LayerCount: 4
Back
Fore
SplineSet
785 1144 m 5
 837 1018 l 5
 329 811 l 5
 837 604 l 5
 785 478 l 5
 140 750 l 5
 140 872 l 5
 785 1144 l 5
140 398 m 5
 840 398 l 5
 840 264 l 5
 140 264 l 5
 140 398 l 5
EndSplineSet
Layer: 2
Layer: 3
EndChar
StartChar: lozenge
Encoding: 662 9674 406
GlifName: lozenge
Width: 916
VWidth: 0
Flags: W
HStem: -38 21G<379.455 536.545>
LayerCount: 4
Back
Fore
SplineSet
390 1120 m 1
 526 1120 l 1
 816 570 l 1
 816 512 l 1
 526 -38 l 1
 390 -38 l 1
 100 512 l 1
 100 570 l 1
 390 1120 l 1
458 954 m 5
 251 541 l 1
 458 128 l 1
 665 541 l 1
 458 954 l 5
EndSplineSet
Layer: 2
Layer: 3
EndChar
StartChar: eight.sup
Encoding: 756 -1 500
Width: 720
Flags: W
HStem: -12 118<244.991 475.009> 330 118<252.807 467.193> 648 118<253.19 466.81>
VStem: 87 132<133.62 303.542> 104 132<467.294 627.768> 484 132<467.294 627.768> 501 132<133.62 303.542>
LayerCount: 4
Back
Fore
SplineSet
360 766 m 0xe8
 503 766 616 676 616 548 c 0xec
 616 485 589 430 533 392 c 1
 599 351 633 291 633 218 c 0
 633 82 512 -12 360 -12 c 0
 208 -12 87 82 87 218 c 0xf2
 87 291 121 351 187 392 c 1
 131 430 104 485 104 548 c 0
 104 676 217 766 360 766 c 0xe8
360 648 m 0
 279 648 236 608 236 548 c 0
 236 488 279 448 360 448 c 0
 441 448 484 488 484 548 c 0
 484 608 441 648 360 648 c 0
360 330 m 0
 268 330 219 284 219 218 c 0
 219 152 268 106 360 106 c 0
 452 106 501 152 501 218 c 0xf2
 501 284 452 330 360 330 c 0
EndSplineSet
Layer: 2
Layer: 3
EndChar
StartChar: five.sup
Encoding: 753 -1 497
Width: 720
Flags: W
HStem: -12 118<208.624 458.74> 363 118<261.11 456.741> 636 118<260 564>
VStem: 128 132<449 636> 488 132<136.219 331.33>
LayerCount: 4
Back
Fore
SplineSet
564 754 m 5
 564 636 l 5
 260 636 l 5
 260 449 l 5
 293 472 327 481 367 481 c 4
 511 481 620 383 620 234 c 4
 620 82 496 -12 347 -12 c 4
 249 -12 168 26 108 72 c 5
 181 169 l 5
 221 138 281 106 347 106 c 4
 428 106 488 152 488 234 c 4
 488 315 431 363 347 363 c 4
 299 363 262 348 227 330 c 5
 128 381 l 5
 128 754 l 5
 564 754 l 5
EndSplineSet
Layer: 2
Layer: 3
EndChar
StartChar: four.sup
Encoding: 752 -1 496
Width: 720
Flags: W
HStem: 0 21G<441 573> 165 118<242 441 573 637>
VStem: 441 132<0 165 283 447>
LayerCount: 4
Back
Fore
SplineSet
637 283 m 5
 637 165 l 5
 573 165 l 5
 573 0 l 5
 441 0 l 5
 441 165 l 5
 84 165 l 5
 84 248 l 5
 344 754 l 5
 484 754 l 5
 242 283 l 5
 441 283 l 5
 441 447 l 5
 573 447 l 5
 573 283 l 5
 637 283 l 5
EndSplineSet
Layer: 2
Layer: 3
EndChar
StartChar: nine.sup
Encoding: 757 -1 501
Width: 720
Flags: W
HStem: -1.06581e-14 21G<227.244 364.826> 268 108<254.043 382.785> 648 118<254.49 466.952>
VStem: 90 132<408.815 617.266> 498 132<406.737 615.977>
LayerCount: 4
Back
Fore
SplineSet
360 648 m 4
 278 648 222 599 222 512 c 0
 222 425 278 376 360 376 c 0
 442 376 498 425 498 512 c 0
 498 599 442 648 360 648 c 4
360 766 m 0
 525 766 630 649 630 512 c 0
 630 443 605.502929688 390.602539062 574 341 c 2
 364.826463837 0 l 1
 214.803536442 -1.06581410364e-14 l 1
 384 272 l 1
 367.384765625 270 347.126953125 268 330 268 c 0
 191.555664062 268 90 374.629882812 90 512 c 0
 90 655 202 766 360 766 c 0
EndSplineSet
Layer: 2
Layer: 3
EndChar
StartChar: one.sup
Encoding: 749 -1 493
Width: 720
VWidth: 0
Flags: W
HStem: 0 21G<356 488>
VStem: 356 132<0 600>
LayerCount: 4
Back
Fore
SplineSet
488 0 m 5
 356 0 l 5
 356 600 l 5
 246 542 l 5
 190 650 l 5
 389 754 l 5
 488 754 l 5
 488 0 l 5
EndSplineSet
Layer: 2
Layer: 3
EndChar
StartChar: seven.sup
Encoding: 755 -1 499
Width: 720
Flags: W
HStem: 0 21G<160 312.375> 636 118<106 458>
VStem: 106 512<672 754>
LayerCount: 4
Back
Fore
SplineSet
106 636 m 5
 106 754 l 5
 618 754 l 5
 618 672 l 5
 303 0 l 5
 160 0 l 5
 458 636 l 5
 106 636 l 5
EndSplineSet
Layer: 2
Layer: 3
EndChar
StartChar: six.sup
Encoding: 754 -1 498
Width: 720
Flags: W
HStem: -9 118<249.742 470.258> 381 111<333.168 469.126>
VStem: 87 132<142.365 349.173> 501 132<142.365 349.012>
LayerCount: 4
Back
Fore
SplineSet
360 381 m 4
 276 381 219 332 219 245 c 4
 219 158 276 109 360 109 c 4
 444 109 501 158 501 245 c 4
 501 332 444 381 360 381 c 4
390 492 m 4
 523 492 633 385 633 245 c 4
 633 101 519 -9 360 -9 c 4
 201 -9 87 101 87 245 c 4
 87 319.840236686 114.73897504 369.515865363 153 431 c 6
 354 754 l 5
 505 754 l 5
 332 483 l 5
 351 490 370 492 390 492 c 4
EndSplineSet
Layer: 2
Layer: 3
EndChar
StartChar: three.sup
Encoding: 751 -1 495
Width: 720
VWidth: 0
Flags: W
HStem: -12 118<198.29 457.347> 330 118<263 430.291> 648 118<201.881 449.279>
VStem: 483 132<132.82 301.479 480.713 615.24>
LayerCount: 4
Back
Fore
SplineSet
615 215 m 4
 615 68 480 -12 341 -12 c 4
 238.530273438 -12 155.578125 25.2666015625 98 74 c 5
 178 166 l 5
 217.615234375 131.713867188 273.083007812 106 341 106 c 4
 418 106 483 143 483 215 c 4
 483 254 465 284 432 306 c 4
 396 330 330 330 263 330 c 5
 262 448 l 5
 363 448 394.901367188 448.135742188 432 475 c 4
 461 496 469 528 469 550 c 4
 469 615 410 648 341 648 c 4
 273.696289062 648 217.9609375 619.719726562 178 586 c 5
 102 682 l 5
 158.580078125 727.303710938 241.498046875 766 341 766 c 4
 482 766 601 682 601 550 c 4
 601 481 567 426 515 391 c 5
 574 354 615 293 615 215 c 4
EndSplineSet
Layer: 2
Layer: 3
EndChar
StartChar: two.sup
Encoding: 750 -1 494
Width: 720
Flags: W
HStem: 0 118<296 613> 648 118<195.522 441.969>
VStem: 461 132<453.099 625.428>
LayerCount: 4
Back
Fore
SplineSet
328 766 m 4
 473 766 593 678 593 545 c 4
 593 454 544.494082607 408.950358028 495 351 c 6
 296 118 l 5
 613 118 l 5
 613 0 l 5
 107 0 l 5
 107 96 l 5
 393 426 l 6
 435.560132951 475.107845713 461 500 461 545 c 4
 461 614 401 648 328 648 c 4
 266.006835938 648 219.775390625 624.274414062 183 593 c 5
 107 689 l 5
 159.572265625 731.317382812 235.510742188 766 328 766 c 4
EndSplineSet
Layer: 2
Layer: 3
EndChar
StartChar: zero.sup
Encoding: 748 -1 492
Width: 720
Flags: W
HStem: -11 128<262.076 461.22> 670 130<260.144 461.003>
VStem: 66 157<164.966 622.549> 498 157<164.966 622.549>
LayerCount: 4
Back
Fore
SplineSet
655 325 m 6
 655 267.666666667 648 218 634 176 c 4
 620 134 600.333333333 99.1666666667 575 71.5 c 4
 549.666666667 43.8333333333 518.833333333 23.1666666667 482.5 9.5 c 4
 446.166666667 -4.16666666667 406 -11 362 -11 c 260
 318 -11 277.833333333 -4.16666666667 241.5 9.5 c 4
 205.166666667 23.1666666667 174 43.8333333333 148 71.5 c 4
 122 99.1666666667 101.833333333 134 87.5 176 c 4
 73.1666666667 218 66 267.666666667 66 325 c 6
 66 463 l 6
 66 519.666666667 73 569.166666667 87 611.5 c 4
 101 653.833333333 121 689 147 717 c 4
 173 745 204 765.833333333 240 779.5 c 4
 276 793.166666667 316 800 360 800 c 4
 404.666666667 800 445.166666667 793.166666667 481.5 779.5 c 4
 517.833333333 765.833333333 548.833333333 745 574.5 717 c 4
 600.166666667 689 620 653.833333333 634 611.5 c 4
 648 569.166666667 655 519.666666667 655 463 c 6
 655 325 l 6
498 478 m 6
 498 544.666666667 486.166666667 593.333333333 462.5 624 c 4
 438.833333333 654.666666667 404.666666667 670 360 670 c 4
 316 670 282.166666667 654.666666667 258.5 624 c 4
 234.833333333 593.333333333 223 544.666666667 223 478 c 6
 223 311 l 6
 223 243.666666667 235.166666667 194.5 259.5 163.5 c 4
 283.833333333 132.5 318 117 362 117 c 260
 406 117 439.666666667 132.5 463 163.5 c 4
 486.333333333 194.5 498 243.666666667 498 311 c 6
 498 478 l 6
EndSplineSet
Layer: 2
Layer: 3
EndChar
